STARTFONT 2.3
FONT -FontForge-Courgette-Book-R-Normal--14-140-72-72-P-73-ISO10646-1
SIZE 14 72 72  2
FONTBOUNDINGBOX 19 18 -3 -4
COMMENT "Generated by fontforge, http://fontforge.sourceforge.net"
COMMENT "Copyright (c) 2012, Sorkin Type Co (www.sorkintype.com) with Reserved Font Name "Courgette"."
STARTPROPERTIES 41
FOUNDRY "FontForge"
FAMILY_NAME "Courgette"
WEIGHT_NAME "Book"
SLANT "R"
SETWIDTH_NAME "Normal"
ADD_STYLE_NAME ""
PIXEL_SIZE 14
POINT_SIZE 140
RESOLUTION_X 72
RESOLUTION_Y 72
SPACING "P"
AVERAGE_WIDTH 73
CHARSET_REGISTRY "ISO10646"
CHARSET_ENCODING "1"
FONTNAME_REGISTRY ""
CHARSET_COLLECTIONS "ISO8859-2 ISO8859-9 ISO8859-4 ISO10646-1"
BITS_PER_PIXEL 2
FONT_NAME "Courgette-Regular"
FACE_NAME "Courgette Regular"
COPYRIGHT "Copyright (c) 2012, Sorkin Type Co (www.sorkintype.com) with Reserved Font Name "Courgette"."
FONT_VERSION "1.002"
FONT_ASCENT 11
FONT_DESCENT 3
UNDERLINE_POSITION -1
UNDERLINE_THICKNESS 1
X_HEIGHT 6
CAP_HEIGHT 10
DEFAULT_CHAR 1
RAW_ASCENT 799
RAW_DESCENT 200
NORM_SPACE 4
RELATIVE_WEIGHT 40
RELATIVE_SETWIDTH 50
SUPERSCRIPT_X 0
SUPERSCRIPT_Y 6
SUPERSCRIPT_SIZE 9
SUBSCRIPT_X 0
SUBSCRIPT_Y 1
SUBSCRIPT_SIZE 9
AVG_LOWERCASE_WIDTH 71
AVG_UPPERCASE_WIDTH 82
ENDPROPERTIES
CHARS 407
STARTCHAR .null.dup1
ENCODING 0
SWIDTH 0 0
DWIDTH 0 0
BBX 1 1 0 0
BITMAP
00
ENDCHAR
STARTCHAR uni0001
ENCODING 1
SWIDTH 0 0
DWIDTH 0 0
BBX 1 1 0 0
BITMAP
00
ENDCHAR
STARTCHAR uni0002
ENCODING 2
SWIDTH 0 0
DWIDTH 0 0
BBX 1 1 0 0
BITMAP
00
ENDCHAR
STARTCHAR uni0003
ENCODING 3
SWIDTH 0 0
DWIDTH 0 0
BBX 1 1 0 0
BITMAP
00
ENDCHAR
STARTCHAR uni0004
ENCODING 4
SWIDTH 0 0
DWIDTH 0 0
BBX 1 1 0 0
BITMAP
00
ENDCHAR
STARTCHAR uni0005
ENCODING 5
SWIDTH 0 0
DWIDTH 0 0
BBX 1 1 0 0
BITMAP
00
ENDCHAR
STARTCHAR uni0006
ENCODING 6
SWIDTH 0 0
DWIDTH 0 0
BBX 1 1 0 0
BITMAP
00
ENDCHAR
STARTCHAR uni0007
ENCODING 7
SWIDTH 0 0
DWIDTH 0 0
BBX 1 1 0 0
BITMAP
00
ENDCHAR
STARTCHAR uni0008
ENCODING 8
SWIDTH 0 0
DWIDTH 0 0
BBX 1 1 0 0
BITMAP
00
ENDCHAR
STARTCHAR uni0009
ENCODING 9
SWIDTH 0 0
DWIDTH 0 0
BBX 1 1 0 0
BITMAP
00
ENDCHAR
STARTCHAR nonmarkingreturn
ENCODING 13
SWIDTH 0 0
DWIDTH 0 0
BBX 1 1 0 0
BITMAP
00
ENDCHAR
STARTCHAR uni0015
ENCODING 21
SWIDTH 0 0
DWIDTH 0 0
BBX 1 1 0 0
BITMAP
00
ENDCHAR
STARTCHAR uni0016
ENCODING 22
SWIDTH 0 0
DWIDTH 0 0
BBX 1 1 0 0
BITMAP
00
ENDCHAR
STARTCHAR uni0017
ENCODING 23
SWIDTH 0 0
DWIDTH 0 0
BBX 1 1 0 0
BITMAP
00
ENDCHAR
STARTCHAR uni0018
ENCODING 24
SWIDTH 0 0
DWIDTH 0 0
BBX 1 1 0 0
BITMAP
00
ENDCHAR
STARTCHAR uni0019
ENCODING 25
SWIDTH 0 0
DWIDTH 0 0
BBX 1 1 0 0
BITMAP
00
ENDCHAR
STARTCHAR space
ENCODING 32
SWIDTH 307 0
DWIDTH 4 0
BBX 1 1 0 0
BITMAP
00
ENDCHAR
STARTCHAR exclam
ENCODING 33
SWIDTH 417 0
DWIDTH 6 0
BBX 6 11 1 0
BITMAP
01D0
0380
0B40
0E00
1D00
2800
2400
2000
5000
F400
5000
ENDCHAR
STARTCHAR quotedbl
ENCODING 34
SWIDTH 437 0
DWIDTH 6 0
BBX 5 4 2 8
BITMAP
1040
B380
D340
8200
ENDCHAR
STARTCHAR numbersign
ENCODING 35
SWIDTH 725 0
DWIDTH 10 0
BBX 9 11 1 0
BITMAP
00A240
00D700
01CA00
028D00
2BBE80
062800
0A2400
AEBA00
18A000
249000
208000
ENDCHAR
STARTCHAR dollar
ENCODING 36
SWIDTH 545 0
DWIDTH 8 0
BBX 7 15 1 -2
BITMAP
0004
0028
02F4
0D1C
2C1C
382C
3874
2D10
1F00
0740
C380
D340
B900
6000
5000
ENDCHAR
STARTCHAR percent
ENCODING 37
SWIDTH 876 0
DWIDTH 12 0
BBX 11 11 1 0
BITMAP
1F40A0
7681C0
A28740
D38D00
972800
69B000
01C2A0
074A34
0D1C70
281CA0
600B80
ENDCHAR
STARTCHAR ampersand
ENCODING 38
SWIDTH 563 0
DWIDTH 8 0
BBX 8 11 0 0
BITMAP
01A9
0B47
1D0B
2C2D
1C14
0BC0
2E00
78B9
7070
74A0
2E40
ENDCHAR
STARTCHAR quotesingle
ENCODING 39
SWIDTH 231 0
DWIDTH 3 0
BBX 2 4 2 8
BITMAP
10
B0
D0
80
ENDCHAR
STARTCHAR parenleft
ENCODING 40
SWIDTH 478 0
DWIDTH 7 0
BBX 8 16 1 -3
BITMAP
0019
0070
01C0
0340
0A00
1D00
2800
3800
7400
7000
7000
7000
7400
3400
1C00
0A00
ENDCHAR
STARTCHAR parenright
ENCODING 41
SWIDTH 478 0
DWIDTH 7 0
BBX 8 16 -2 -3
BITMAP
0060
0028
001C
000D
000D
000E
000D
001D
001C
0028
0034
00A0
01C0
0340
0D00
6400
ENDCHAR
STARTCHAR asterisk
ENCODING 42
SWIDTH 518 0
DWIDTH 7 0
BBX 5 5 2 6
BITMAP
0A00
9D40
7E80
6D00
8600
ENDCHAR
STARTCHAR plus
ENCODING 43
SWIDTH 617 0
DWIDTH 9 0
BBX 7 7 1 2
BITMAP
0200
0300
0300
ABA8
0300
0300
0200
ENDCHAR
STARTCHAR comma
ENCODING 44
SWIDTH 312 0
DWIDTH 4 0
BBX 3 4 0 -2
BITMAP
74
38
34
90
ENDCHAR
STARTCHAR hyphen
ENCODING 45
SWIDTH 452 0
DWIDTH 6 0
BBX 4 1 1 4
BITMAP
6A
ENDCHAR
STARTCHAR period
ENCODING 46
SWIDTH 270 0
DWIDTH 4 0
BBX 3 2 0 0
BITMAP
74
74
ENDCHAR
STARTCHAR slash
ENCODING 47
SWIDTH 405 0
DWIDTH 6 0
BBX 9 15 -1 -2
BITMAP
000040
000280
000740
000A00
001C00
003400
007000
00D000
028000
070000
0A0000
1C0000
340000
600000
D00000
ENDCHAR
STARTCHAR zero
ENCODING 48
SWIDTH 621 0
DWIDTH 9 0
BBX 8 11 1 0
BITMAP
01A8
074A
1D0A
2C0A
740E
B01D
E02C
D074
D0A0
D2C0
7E00
ENDCHAR
STARTCHAR one
ENCODING 49
SWIDTH 405 0
DWIDTH 6 0
BBX 5 11 1 0
BITMAP
0740
1F80
2740
0700
0A00
0D00
1C00
2800
3000
A000
8000
ENDCHAR
STARTCHAR two
ENCODING 50
SWIDTH 524 0
DWIDTH 7 0
BBX 8 11 0 0
BITMAP
01F8
0B0D
0E0D
0E1D
093C
00F4
02D0
0B40
2D00
7400
BAA0
ENDCHAR
STARTCHAR three
ENCODING 51
SWIDTH 537 0
DWIDTH 8 0
BBX 8 11 0 0
BITMAP
01A8
070A
0E0A
0E0E
052C
01F4
02E0
0070
34B0
71D0
2F40
ENDCHAR
STARTCHAR four
ENCODING 52
SWIDTH 529 0
DWIDTH 7 0
BBX 6 11 1 0
BITMAP
0D00
0E00
1D00
2C60
74B0
B0A0
D0D0
ABE0
0340
0A00
0800
ENDCHAR
STARTCHAR five
ENCODING 53
SWIDTH 540 0
DWIDTH 8 0
BBX 9 11 0 0
BITMAP
01EA40
03AE00
070000
0A0000
0FB400
1C2800
002C00
103800
707400
71E000
2E4000
ENDCHAR
STARTCHAR six
ENCODING 54
SWIDTH 554 0
DWIDTH 8 0
BBX 7 11 1 0
BITMAP
01F8
0B1C
1D38
3810
7400
B690
F8B0
E070
E0A0
A1D0
2A40
ENDCHAR
STARTCHAR seven
ENCODING 55
SWIDTH 473 0
DWIDTH 7 0
BBX 7 11 1 0
BITMAP
6074
2EB8
0070
01D0
0380
0B00
1D00
2800
7400
7000
7000
ENDCHAR
STARTCHAR eight
ENCODING 56
SWIDTH 524 0
DWIDTH 7 0
BBX 8 11 0 0
BITMAP
01F8
075E
0A0E
0A0E
0B1C
07E0
07D0
28E0
7060
7490
2E80
ENDCHAR
STARTCHAR nine
ENCODING 57
SWIDTH 554 0
DWIDTH 8 0
BBX 8 11 0 0
BITMAP
01A8
074A
0E0A
1D0E
1C1E
1D3D
0AAC
0028
2470
70D0
2A40
ENDCHAR
STARTCHAR colon
ENCODING 58
SWIDTH 312 0
DWIDTH 4 0
BBX 4 7 0 0
BITMAP
05
1E
08
00
00
74
74
ENDCHAR
STARTCHAR semicolon
ENCODING 59
SWIDTH 312 0
DWIDTH 4 0
BBX 4 9 0 -2
BITMAP
05
1E
09
00
00
74
38
34
90
ENDCHAR
STARTCHAR less
ENCODING 60
SWIDTH 637 0
DWIDTH 9 0
BBX 7 7 1 1
BITMAP
0018
01E0
1E00
B400
2D00
02D0
0028
ENDCHAR
STARTCHAR equal
ENCODING 61
SWIDTH 617 0
DWIDTH 9 0
BBX 7 3 1 4
BITMAP
AAA8
0000
AAA8
ENDCHAR
STARTCHAR greater
ENCODING 62
SWIDTH 606 0
DWIDTH 8 0
BBX 7 7 1 1
BITMAP
A000
1E00
02E0
0078
02D0
2D00
9000
ENDCHAR
STARTCHAR question
ENCODING 63
SWIDTH 516 0
DWIDTH 7 0
BBX 7 11 1 0
BITMAP
06A0
0D24
1D28
08B4
02E0
0B40
1D00
2400
0000
B400
B000
ENDCHAR
STARTCHAR at
ENCODING 64
SWIDTH 905 0
DWIDTH 13 0
BBX 13 11 0 -2
BITMAP
001AA400
01901A00
0A1AA340
1C75D240
34E1C340
31D38700
71DB5D00
74A5A000
38000000
1D010000
02A90000
ENDCHAR
STARTCHAR A
ENCODING 65
SWIDTH 615 0
DWIDTH 9 0
BBX 10 11 -1 0
BITMAP
0001B0
000AA0
0028D0
0061C0
00C380
06FFE0
0B5B40
090B00
1C0E00
340E00
E00780
ENDCHAR
STARTCHAR B
ENCODING 66
SWIDTH 551 0
DWIDTH 8 0
BBX 9 11 0 0
BITMAP
06E900
2D0700
074340
0B4740
1E0B00
2D6D00
3FF000
742800
702800
70B400
2F9000
ENDCHAR
STARTCHAR C
ENCODING 67
SWIDTH 533 0
DWIDTH 7 0
BBX 9 11 0 0
BITMAP
006A00
02D240
074340
0E0B00
2C1D00
380000
340000
740000
740000
382400
1EE000
ENDCHAR
STARTCHAR D
ENCODING 68
SWIDTH 630 0
DWIDTH 9 0
BBX 9 11 0 0
BITMAP
1BA900
190740
0382C0
0741C0
0E02C0
1D0380
2C0740
380E00
742C00
71A000
2A4000
ENDCHAR
STARTCHAR E
ENCODING 69
SWIDTH 509 0
DWIDTH 7 0
BBX 8 11 0 0
BITMAP
00BA
0783
0E0B
1D2D
1C00
0E80
0B80
3D00
7410
7470
2F90
ENDCHAR
STARTCHAR F
ENCODING 70
SWIDTH 518 0
DWIDTH 7 0
BBX 9 11 0 0
BITMAP
1E9040
34AA40
31D000
02C000
038000
0BE800
0B0000
0E0000
1D0000
380000
600000
ENDCHAR
STARTCHAR G
ENCODING 71
SWIDTH 598 0
DWIDTH 8 0
BBX 9 11 0 0
BITMAP
006A00
01D240
074380
0E0B40
2D1E00
380800
340000
747F00
742800
382000
1E9000
ENDCHAR
STARTCHAR H
ENCODING 72
SWIDTH 668 0
DWIDTH 9 0
BBX 11 11 -1 0
BITMAP
07D028
00E028
00D038
01D074
02C0B0
07EAF0
0741C0
0B0280
0D0340
280700
600380
ENDCHAR
STARTCHAR I
ENCODING 73
SWIDTH 327 0
DWIDTH 5 0
BBX 5 11 0 0
BITMAP
1F40
02C0
0380
0340
0740
0B00
0E00
1D00
2800
7400
D000
ENDCHAR
STARTCHAR J
ENCODING 74
SWIDTH 393 0
DWIDTH 6 0
BBX 9 15 -3 -4
BITMAP
006F80
00E2C0
004380
000380
000740
000B00
000E00
001D00
003C00
007400
00B000
01D000
038000
0E0000
780000
ENDCHAR
STARTCHAR K
ENCODING 75
SWIDTH 616 0
DWIDTH 9 0
BBX 10 11 -1 0
BITMAP
0B80A0
05D0B0
01D0E0
02C1D0
038740
03A800
07F000
0F7400
1D2D00
280E00
600790
ENDCHAR
STARTCHAR L
ENCODING 76
SWIDTH 517 0
DWIDTH 7 0
BBX 8 11 0 0
BITMAP
0069
01D6
038A
071E
0E7C
1D10
2C00
3800
7000
E6A0
FAA4
ENDCHAR
STARTCHAR M
ENCODING 77
SWIDTH 931 0
DWIDTH 13 0
BBX 15 11 -2 0
BITMAP
0001B02C
0007E0BC
000DD2B8
0029C374
007289B0
00938CE0
01C764D0
034771C0
0B0792C0
1D0782C0
740741E4
ENDCHAR
STARTCHAR N
ENCODING 78
SWIDTH 708 0
DWIDTH 10 0
BBX 11 11 0 0
BITMAP
00B074
02F038
07A038
09A034
1CB070
28B0A0
3471C0
707640
A03B00
A02E00
900900
ENDCHAR
STARTCHAR O
ENCODING 79
SWIDTH 655 0
DWIDTH 9 0
BBX 9 11 1 0
BITMAP
01AD00
074700
1D0340
380340
740740
B00B00
E00E00
D02C00
D07400
A1E000
2A4000
ENDCHAR
STARTCHAR P
ENCODING 80
SWIDTH 553 0
DWIDTH 8 0
BBX 10 11 -1 0
BITMAP
01BA40
0740D0
0090E0
01D0E0
02C2C0
039B40
07F800
0B0000
1D0000
280000
700000
ENDCHAR
STARTCHAR Q
ENCODING 81
SWIDTH 655 0
DWIDTH 9 0
BBX 9 13 1 -2
BITMAP
01A900
0B4700
1D0740
380740
700B00
A00E00
E01D00
E03800
74E000
178000
2F8000
01B800
001B80
ENDCHAR
STARTCHAR R
ENCODING 82
SWIDTH 623 0
DWIDTH 9 0
BBX 10 11 -1 0
BITMAP
01BA40
0740D0
00A0A0
01D0E0
02C2C0
039F40
07F400
0B3800
0D1D00
2C0E00
7007D0
ENDCHAR
STARTCHAR S
ENCODING 83
SWIDTH 474 0
DWIDTH 7 0
BBX 8 11 0 0
BITMAP
01E8
0B09
0D0A
1D1D
1D3C
1E00
0B40
03C0
61C0
A180
6A00
ENDCHAR
STARTCHAR T
ENCODING 84
SWIDTH 471 0
DWIDTH 7 0
BBX 8 11 1 0
BITMAP
7A42
E2E9
C380
0740
0B00
0B00
0E00
1D00
2800
7400
D000
ENDCHAR
STARTCHAR U
ENCODING 85
SWIDTH 624 0
DWIDTH 9 0
BBX 10 11 0 0
BITMAP
0780A0
0381D0
0742C0
0B0380
0E0B40
2C0F00
382E00
746D00
B09D00
B25C00
790E40
ENDCHAR
STARTCHAR V
ENCODING 86
SWIDTH 587 0
DWIDTH 8 0
BBX 9 11 1 0
BITMAP
7A0280
1742C0
0F02C0
1E0740
2C0B00
382D00
70B400
A1D000
A70000
AC0000
740000
ENDCHAR
STARTCHAR W
ENCODING 87
SWIDTH 941 0
DWIDTH 13 0
BBX 13 11 1 0
BITMAP
79000380
070003C0
0F0782C0
1D1F0280
3C7D0380
78FC0740
B2A80B00
E7380D00
D9342800
E838A000
B01E4000
ENDCHAR
STARTCHAR X
ENCODING 88
SWIDTH 552 0
DWIDTH 8 0
BBX 11 11 -1 0
BITMAP
006068
00E1E0
00E380
00EA00
00FC00
00B400
00F000
02F400
063800
2C2D40
740B40
ENDCHAR
STARTCHAR Y
ENCODING 89
SWIDTH 580 0
DWIDTH 8 0
BBX 10 15 0 -4
BITMAP
0740A0
0381D0
0742C0
0B0780
0E0B40
2C1F00
382D00
747C00
B0A800
A27400
797000
00D000
028000
0A0000
280000
ENDCHAR
STARTCHAR Z
ENCODING 90
SWIDTH 501 0
DWIDTH 7 0
BBX 9 11 0 0
BITMAP
181B00
0FEB40
001E00
003800
00E000
028000
0A0000
280000
700000
EAA000
E41400
ENDCHAR
STARTCHAR bracketleft
ENCODING 91
SWIDTH 396 0
DWIDTH 6 0
BBX 7 15 0 -2
BITMAP
0028
00B4
00E0
01D0
02C0
0340
0700
0A00
0D00
1C00
2800
3400
7000
A000
B400
ENDCHAR
STARTCHAR backslash
ENCODING 92
SWIDTH 464 0
DWIDTH 7 0
BBX 6 15 0 -2
BITMAP
1000
7000
3400
2400
1800
0C00
0D00
0A00
0600
0300
0340
0280
0180
00C0
0090
ENDCHAR
STARTCHAR bracketright
ENCODING 93
SWIDTH 394 0
DWIDTH 6 0
BBX 8 15 -1 -3
BITMAP
002D
001D
001C
0028
0074
00B0
00E0
01D0
02C0
0340
0700
0A00
0D00
1C00
7800
ENDCHAR
STARTCHAR asciicircum
ENCODING 94
SWIDTH 540 0
DWIDTH 8 0
BBX 6 6 1 5
BITMAP
0300
0B80
1DC0
24A0
6030
4010
ENDCHAR
STARTCHAR underscore
ENCODING 95
SWIDTH 530 0
DWIDTH 7 0
BBX 9 1 -2 -2
BITMAP
AAAA80
ENDCHAR
STARTCHAR grave
ENCODING 96
SWIDTH 219 0
DWIDTH 3 0
BBX 3 4 0 7
BITMAP
70
70
34
04
ENDCHAR
STARTCHAR a
ENCODING 97
SWIDTH 541 0
DWIDTH 8 0
BBX 8 8 0 -1
BITMAP
02AD
1D2C
2838
7474
70B0
72A0
297C
0010
ENDCHAR
STARTCHAR b
ENCODING 98
SWIDTH 525 0
DWIDTH 7 0
BBX 7 12 0 0
BITMAP
0100
0740
0700
0A00
0D00
1DB4
2E28
3C28
7438
7074
71D0
2E40
ENDCHAR
STARTCHAR c
ENCODING 99
SWIDTH 465 0
DWIDTH 7 0
BBX 7 7 0 0
BITMAP
06A0
1D34
3874
7450
7000
7050
2E40
ENDCHAR
STARTCHAR d
ENCODING 100
SWIDTH 557 0
DWIDTH 8 0
BBX 9 12 0 0
BITMAP
000040
0002C0
000380
000700
000A00
02AD00
0E2D00
2C2C00
343800
74B400
71F000
2A3900
ENDCHAR
STARTCHAR e
ENCODING 101
SWIDTH 471 0
DWIDTH 7 0
BBX 7 7 0 0
BITMAP
02A0
0D34
2874
7AD0
7900
7450
2E80
ENDCHAR
STARTCHAR f
ENCODING 102
SWIDTH 393 0
DWIDTH 6 0
BBX 8 14 0 -2
BITMAP
0068
01D9
028D
035C
0740
0B00
2FA0
1D00
1C00
2800
3400
7000
E000
8000
ENDCHAR
STARTCHAR g
ENCODING 103
SWIDTH 526 0
DWIDTH 7 0
BBX 8 11 0 -4
BITMAP
02A5
0D2D
282C
7438
70B4
71F0
2EA0
00C0
0280
0B00
2800
ENDCHAR
STARTCHAR h
ENCODING 104
SWIDTH 555 0
DWIDTH 8 0
BBX 8 12 0 0
BITMAP
0140
0280
0380
0740
0700
0A6C
0D5D
1E2C
2C78
74B0
B0A0
9078
ENDCHAR
STARTCHAR i
ENCODING 105
SWIDTH 286 0
DWIDTH 4 0
BBX 5 11 0 0
BITMAP
0740
0740
0000
0000
1D00
0D00
1C00
3400
7000
B400
7800
ENDCHAR
STARTCHAR j
ENCODING 106
SWIDTH 281 0
DWIDTH 4 0
BBX 7 15 -3 -4
BITMAP
002C
0028
0000
0000
0074
0074
0070
00B0
00E0
00D0
02C0
0340
0700
1D00
6400
ENDCHAR
STARTCHAR k
ENCODING 107
SWIDTH 497 0
DWIDTH 7 0
BBX 7 12 0 0
BITMAP
0140
0280
0340
0740
0700
0A2C
0D2C
1DB4
2F40
7B40
B3D4
91F4
ENDCHAR
STARTCHAR l
ENCODING 108
SWIDTH 279 0
DWIDTH 4 0
BBX 5 12 0 0
BITMAP
0100
0340
0740
0700
0A00
0D00
1C00
2800
3400
7000
B000
7800
ENDCHAR
STARTCHAR m
ENCODING 109
SWIDTH 814 0
DWIDTH 11 0
BBX 11 7 0 0
BITMAP
1D6C78
0D9E68
1E2D74
2C38B0
7470E0
B0A0E4
90D0B4
ENDCHAR
STARTCHAR n
ENCODING 110
SWIDTH 561 0
DWIDTH 8 0
BBX 8 7 0 0
BITMAP
1D6C
0D9D
1E2C
2C38
7474
B0B0
9078
ENDCHAR
STARTCHAR o
ENCODING 111
SWIDTH 514 0
DWIDTH 7 0
BBX 7 7 0 0
BITMAP
06A0
1E38
3838
7434
70B0
71D0
2E40
ENDCHAR
STARTCHAR p
ENCODING 112
SWIDTH 550 0
DWIDTH 8 0
BBX 8 11 -1 -4
BITMAP
0B6E
0787
0B47
0E0B
0D0D
1D28
2AE0
3400
7000
A000
9000
ENDCHAR
STARTCHAR q
ENCODING 113
SWIDTH 533 0
DWIDTH 7 0
BBX 8 11 0 -4
BITMAP
02A5
0E2D
282C
7438
70B4
71E0
2A90
00C0
01C0
0280
0180
ENDCHAR
STARTCHAR r
ENCODING 114
SWIDTH 407 0
DWIDTH 6 0
BBX 7 7 0 0
BITMAP
1C74
1DB0
1E00
2C00
3800
B000
A000
ENDCHAR
STARTCHAR s
ENCODING 115
SWIDTH 423 0
DWIDTH 6 0
BBX 6 7 0 0
BITMAP
0AD0
2CB0
2C50
0E00
0740
9340
7E00
ENDCHAR
STARTCHAR t
ENCODING 116
SWIDTH 358 0
DWIDTH 5 0
BBX 5 9 1 0
BITMAP
0A00
1D00
7E40
3400
7000
A000
E000
E500
B800
ENDCHAR
STARTCHAR u
ENCODING 117
SWIDTH 553 0
DWIDTH 8 0
BBX 8 7 0 0
BITMAP
1D0A
0D1D
1C38
3874
75B0
B2B0
7878
ENDCHAR
STARTCHAR v
ENCODING 118
SWIDTH 510 0
DWIDTH 7 0
BBX 7 7 0 0
BITMAP
1D28
0D2C
1C28
3834
7460
B180
7E00
ENDCHAR
STARTCHAR w
ENCODING 119
SWIDTH 750 0
DWIDTH 11 0
BBX 11 7 0 0
BITMAP
1D0470
0D2C74
1C7430
28F060
36A090
79B280
747D00
ENDCHAR
STARTCHAR x
ENCODING 120
SWIDTH 467 0
DWIDTH 7 0
BBX 7 7 0 0
BITMAP
0C2C
1CA0
1E80
0F00
0E00
7B00
D2D0
ENDCHAR
STARTCHAR y
ENCODING 121
SWIDTH 549 0
DWIDTH 8 0
BBX 8 11 0 -4
BITMAP
1D0A
0E1D
1D2C
3878
74B4
B270
78A0
00D0
0280
0B00
2800
ENDCHAR
STARTCHAR z
ENCODING 122
SWIDTH 430 0
DWIDTH 6 0
BBX 7 7 0 0
BITMAP
1EB4
05B0
02D0
0B00
2800
B540
AAC0
ENDCHAR
STARTCHAR braceleft
ENCODING 123
SWIDTH 424 0
DWIDTH 6 0
BBX 8 15 0 -3
BITMAP
001D
0074
00B0
00A0
00D0
01C0
0380
1E00
0D00
0D00
1D00
2800
3400
7400
2800
ENDCHAR
STARTCHAR bar
ENCODING 124
SWIDTH 306 0
DWIDTH 4 0
BBX 2 15 1 -2
BITMAP
30
70
70
70
70
70
70
70
70
70
70
70
70
70
60
ENDCHAR
STARTCHAR braceright
ENCODING 125
SWIDTH 424 0
DWIDTH 6 0
BBX 7 15 -1 -3
BITMAP
0028
001C
002C
0038
0070
00A0
0070
00B4
0280
0740
0B00
0E00
0D00
2C00
B400
ENDCHAR
STARTCHAR asciitilde
ENCODING 126
SWIDTH 624 0
DWIDTH 9 0
BBX 8 3 1 4
BITMAP
2A05
9748
81A4
ENDCHAR
STARTCHAR nonbreakingspace
ENCODING 160
SWIDTH 293 0
DWIDTH 4 0
BBX 1 1 0 0
BITMAP
00
ENDCHAR
STARTCHAR exclamdown
ENCODING 161
SWIDTH 417 0
DWIDTH 6 0
BBX 6 11 0 -3
BITMAP
02D0
02D0
0000
0600
0D00
1C00
3800
7400
7400
B000
6000
ENDCHAR
STARTCHAR cent
ENCODING 162
SWIDTH 487 0
DWIDTH 7 0
BBX 6 11 1 0
BITMAP
00A0
00C0
0BC0
2DA0
74E0
B1D0
E000
A080
7E40
3000
2000
ENDCHAR
STARTCHAR sterling
ENCODING 163
SWIDTH 665 0
DWIDTH 9 0
BBX 11 11 -1 0
BITMAP
0002A0
000B24
001D24
002C74
0039E0
007480
02FA00
01D000
2BC000
63E050
2E6E80
ENDCHAR
STARTCHAR currency
ENCODING 164
SWIDTH 572 0
DWIDTH 8 0
BBX 7 9 1 0
BITMAP
0400
0FA8
1D70
3874
74B0
70E0
72C0
AAC0
4080
ENDCHAR
STARTCHAR yen
ENCODING 165
SWIDTH 583 0
DWIDTH 8 0
BBX 9 11 1 0
BITMAP
B40280
780F00
1C2C00
0D7400
0AD000
078000
3FE000
0B0000
BFD000
0D0000
0C0000
ENDCHAR
STARTCHAR brokenbar
ENCODING 166
SWIDTH 292 0
DWIDTH 4 0
BBX 2 15 1 -2
BITMAP
60
60
60
60
60
60
60
00
60
60
60
60
60
60
60
ENDCHAR
STARTCHAR section
ENCODING 167
SWIDTH 583 0
DWIDTH 8 0
BBX 9 15 0 -3
BITMAP
006900
01D340
02C340
02CB00
02D500
07E000
1DB400
2C3800
2C2C00
1E2800
0BA000
078000
928000
E24000
690000
ENDCHAR
STARTCHAR dieresis
ENCODING 168
SWIDTH 412 0
DWIDTH 6 0
BBX 6 2 0 9
BITMAP
74E0
74D0
ENDCHAR
STARTCHAR copyright
ENCODING 169
SWIDTH 871 0
DWIDTH 12 0
BBX 11 11 1 0
BITMAP
01AA40
0A40A0
286934
71D328
A28A28
935D28
D70034
934470
61A4D0
280740
0AA800
ENDCHAR
STARTCHAR ordfeminine
ENCODING 170
SWIDTH 564 0
DWIDTH 8 0
BBX 7 6 1 4
BITMAP
06A8
1D74
34B0
70E0
72D0
29A4
ENDCHAR
STARTCHAR guillemotleft
ENCODING 171
SWIDTH 662 0
DWIDTH 9 0
BBX 8 6 1 1
BITMAP
0605
2D78
E1D0
B0E0
2C74
0404
ENDCHAR
STARTCHAR logicalnot
ENCODING 172
SWIDTH 729 0
DWIDTH 10 0
BBX 8 5 1 0
BITMAP
AAAA
0007
0007
0007
0001
ENDCHAR
STARTCHAR uni00AD
ENCODING 173
SWIDTH 833 0
DWIDTH 12 0
BBX 1 1 0 0
BITMAP
00
ENDCHAR
STARTCHAR registered
ENCODING 174
SWIDTH 742 0
DWIDTH 10 0
BBX 9 9 1 2
BITMAP
02A900
195240
26A9C0
6158C0
92E0C0
93A180
652740
341D00
0BE400
ENDCHAR
STARTCHAR macron
ENCODING 175
SWIDTH 392 0
DWIDTH 5 0
BBX 5 1 1 8
BITMAP
AA40
ENDCHAR
STARTCHAR degree
ENCODING 176
SWIDTH 405 0
DWIDTH 6 0
BBX 5 5 1 6
BITMAP
1B80
35C0
71C0
7380
2900
ENDCHAR
STARTCHAR plusminus
ENCODING 177
SWIDTH 617 0
DWIDTH 9 0
BBX 7 9 1 0
BITMAP
0200
0300
0300
ABA8
0300
0300
0200
0000
AAA8
ENDCHAR
STARTCHAR twosuperior
ENCODING 178
SWIDTH 458 0
DWIDTH 6 0
BBX 6 7 1 4
BITMAP
0A80
28A0
28D0
07C0
1E00
7400
AA40
ENDCHAR
STARTCHAR threesuperior
ENCODING 179
SWIDTH 430 0
DWIDTH 6 0
BBX 6 8 1 3
BITMAP
0A80
18A0
18D0
0780
0B00
5340
D700
6900
ENDCHAR
STARTCHAR acute
ENCODING 180
SWIDTH 322 0
DWIDTH 5 0
BBX 4 4 1 8
BITMAP
04
1D
2C
60
ENDCHAR
STARTCHAR mu
ENCODING 181
SWIDTH 618 0
DWIDTH 9 0
BBX 9 11 -1 -4
BITMAP
01C1C0
028280
074740
0A0F00
1D2E00
2E9E40
2F4B40
340000
700000
700000
600000
ENDCHAR
STARTCHAR paragraph
ENCODING 182
SWIDTH 739 0
DWIDTH 10 0
BBX 12 12 0 -1
BITMAP
001ABD
00BE28
03FD34
07FC70
07F8B0
01F8E0
0074D0
00B1C0
00E240
79C300
B28A00
690800
ENDCHAR
STARTCHAR periodcentered
ENCODING 183
SWIDTH 353 0
DWIDTH 5 0
BBX 2 2 2 4
BITMAP
E0
E0
ENDCHAR
STARTCHAR cedilla
ENCODING 184
SWIDTH 301 0
DWIDTH 4 0
BBX 3 4 1 -3
BITMAP
20
24
74
A0
ENDCHAR
STARTCHAR onesuperior
ENCODING 185
SWIDTH 403 0
DWIDTH 6 0
BBX 4 7 2 4
BITMAP
1D
7D
5C
28
34
A0
80
ENDCHAR
STARTCHAR ordmasculine
ENCODING 186
SWIDTH 498 0
DWIDTH 7 0
BBX 6 6 1 4
BITMAP
0690
1C70
34B0
70E0
72C0
2A00
ENDCHAR
STARTCHAR guillemotright
ENCODING 187
SWIDTH 665 0
DWIDTH 9 0
BBX 8 6 1 1
BITMAP
7090
2C74
0A1D
2D78
A1D0
4100
ENDCHAR
STARTCHAR onequarter
ENCODING 188
SWIDTH 988 0
DWIDTH 14 0
BBX 12 12 1 0
BITMAP
000040
074280
1F4340
7B0A00
0A1C40
0D28D0
2871D0
34D289
51874D
0343FE
0A0034
0C0090
ENDCHAR
STARTCHAR onehalf
ENCODING 189
SWIDTH 988 0
DWIDTH 14 0
BBX 12 11 1 0
BITMAP
0741C0
1F4240
7B0700
0A0D00
0D28AD
1871C7
34A1CA
61C02D
0340B4
0A0380
0C07A8
ENDCHAR
STARTCHAR threequarters
ENCODING 190
SWIDTH 1007 0
DWIDTH 14 0
BBX 13 12 0 0
BITMAP
00000400
06D02400
0D707000
0DB0D000
02D28400
07835C00
21CA2840
729C35C0
2928A280
00707F80
00D00A00
01800800
ENDCHAR
STARTCHAR questiondown
ENCODING 191
SWIDTH 516 0
DWIDTH 7 0
BBX 7 11 0 -3
BITMAP
0074
00B4
0000
0090
02C0
0B40
3D00
B540
D2C0
9380
6A00
ENDCHAR
STARTCHAR Agrave
ENCODING 192
SWIDTH 615 0
DWIDTH 9 0
BBX 10 14 -1 0
BITMAP
000140
000280
000190
0001B0
000AA0
0028D0
0061C0
00C380
06FFE0
0B5B40
090B00
1C0E00
340E00
E00780
ENDCHAR
STARTCHAR Aacute
ENCODING 193
SWIDTH 615 0
DWIDTH 9 0
BBX 11 14 -1 0
BITMAP
000014
000028
000060
0001B0
000AA0
0028D0
0061C0
00C380
06FFE0
0B5B40
090B00
1C0E00
340E00
E00780
ENDCHAR
STARTCHAR Acircumflex
ENCODING 194
SWIDTH 615 0
DWIDTH 9 0
BBX 11 14 -1 0
BITMAP
000010
0000B4
000668
0001B0
000AA0
0028D0
0061C0
00C380
06FFE0
0B5B40
090B00
1C0E00
340E00
E00780
ENDCHAR
STARTCHAR Atilde
ENCODING 195
SWIDTH 615 0
DWIDTH 9 0
BBX 12 13 -1 0
BITMAP
000291
000468
0001B0
000AA0
0028D0
0061C0
00C380
06FFE0
0B5B40
090B00
1C0E00
340E00
E00780
ENDCHAR
STARTCHAR Adieresis
ENCODING 196
SWIDTH 615 0
DWIDTH 9 0
BBX 12 14 -1 0
BITMAP
000104
000B5D
000104
0001B0
000AA0
0028D0
0061C0
00C380
06FFE0
0B5B40
090A00
1C0E00
340E40
E00780
ENDCHAR
STARTCHAR Aring
ENCODING 197
SWIDTH 615 0
DWIDTH 9 0
BBX 11 14 -1 0
BITMAP
0000A4
00029C
000368
0002F0
000BB0
001DA0
0074D0
00A2C0
01C280
0BEB90
0A0B00
0D0A00
280E00
A00B80
ENDCHAR
STARTCHAR AE
ENCODING 198
SWIDTH 878 0
DWIDTH 12 0
BBX 15 11 -1 0
BITMAP
0001BBA0
000A7C24
001CB070
0034E1E0
00A1D040
01D0D000
07EAF900
0A02D000
1D038100
28034700
A001F900
ENDCHAR
STARTCHAR Ccedilla
ENCODING 199
SWIDTH 533 0
DWIDTH 7 0
BBX 9 14 0 -3
BITMAP
006A00
01D240
074340
0E0B00
2C1D00
380000
380000
740000
740000
382400
1EA000
060000
0A0000
1D0000
ENDCHAR
STARTCHAR Egrave
ENCODING 200
SWIDTH 509 0
DWIDTH 7 0
BBX 8 14 0 0
BITMAP
0010
0074
0028
00BA
0783
0E0B
1D2D
1C00
0E80
0B80
3D00
7410
7470
2F90
ENDCHAR
STARTCHAR Eacute
ENCODING 201
SWIDTH 509 0
DWIDTH 7 0
BBX 9 14 0 0
BITMAP
000100
000740
000900
00BA00
078300
0E0B00
1D2D00
1C0000
0E8000
0B8000
3D0000
741000
747000
2F9000
ENDCHAR
STARTCHAR Ecircumflex
ENCODING 202
SWIDTH 509 0
DWIDTH 7 0
BBX 9 14 0 0
BITMAP
000400
001E00
00A740
00BA00
078300
0E0B00
1D2D00
1C0000
0E8000
0B8000
3D0000
741000
747000
2F9000
ENDCHAR
STARTCHAR Edieresis
ENCODING 203
SWIDTH 509 0
DWIDTH 7 0
BBX 9 14 0 0
BITMAP
005140
01E3C0
005140
00BA00
078300
0E0B00
1D2D00
1C0000
0E8000
0B8000
3D0000
741000
747000
2F9000
ENDCHAR
STARTCHAR Igrave
ENCODING 204
SWIDTH 327 0
DWIDTH 5 0
BBX 5 14 0 0
BITMAP
0100
0740
02C0
1F40
02C0
0380
0340
0740
0B00
0E00
1D00
2800
7400
D000
ENDCHAR
STARTCHAR Iacute
ENCODING 205
SWIDTH 327 0
DWIDTH 5 0
BBX 7 14 0 0
BITMAP
0010
0074
0090
1F40
02C0
0380
0340
0740
0B00
0E00
1D00
2800
7400
D000
ENDCHAR
STARTCHAR Icircumflex
ENCODING 206
SWIDTH 327 0
DWIDTH 5 0
BBX 7 14 0 0
BITMAP
0050
01F0
0A74
1F40
02C0
0380
0340
0740
0B00
0E00
1D00
2800
7400
D000
ENDCHAR
STARTCHAR Idieresis
ENCODING 207
SWIDTH 327 0
DWIDTH 5 0
BBX 7 14 0 0
BITMAP
0514
0F3C
0514
1F40
02C0
0380
0340
0740
0B00
0E00
1D00
2800
7400
D000
ENDCHAR
STARTCHAR Eth
ENCODING 208
SWIDTH 630 0
DWIDTH 9 0
BBX 9 11 0 0
BITMAP
1BE900
1D0740
024280
0742C0
0B02C0
7FE380
2D4740
380E00
743800
71E000
2A4000
ENDCHAR
STARTCHAR Ntilde
ENCODING 209
SWIDTH 708 0
DWIDTH 10 0
BBX 11 13 0 0
BITMAP
000684
0008A4
00B074
02F038
07A038
09A034
1CB070
28B0A0
3471C0
707640
A03B00
A02E00
900900
ENDCHAR
STARTCHAR Ograve
ENCODING 210
SWIDTH 655 0
DWIDTH 9 0
BBX 9 14 1 0
BITMAP
001000
003400
001D00
01AD00
074700
1D0340
380340
740740
B00B00
E00E00
D02C00
D07400
A1E000
2A4000
ENDCHAR
STARTCHAR Oacute
ENCODING 211
SWIDTH 655 0
DWIDTH 9 0
BBX 9 14 1 0
BITMAP
000100
000380
000A00
01AD00
074700
1D0340
380340
740740
B00B00
E00E00
D02C00
D07400
A1E000
2A4000
ENDCHAR
STARTCHAR Ocircumflex
ENCODING 212
SWIDTH 655 0
DWIDTH 9 0
BBX 9 14 1 0
BITMAP
000100
001F00
00A680
01AD00
074700
1D0340
380340
740740
B00B00
E00E00
D02C00
D07400
A1E000
2A4000
ENDCHAR
STARTCHAR Otilde
ENCODING 213
SWIDTH 655 0
DWIDTH 9 0
BBX 10 13 1 0
BITMAP
006850
008A40
01AD00
074700
1D0340
380340
740740
B00B00
E00E00
D02C00
D07400
A1E000
2A4000
ENDCHAR
STARTCHAR Odieresis
ENCODING 214
SWIDTH 655 0
DWIDTH 9 0
BBX 10 14 1 0
BITMAP
005140
00F2D0
005140
01AD00
074700
1D0340
380340
740740
B00B00
E00E00
D02C00
D07400
A1E000
2A4000
ENDCHAR
STARTCHAR multiply
ENCODING 215
SWIDTH 573 0
DWIDTH 8 0
BBX 6 6 1 2
BITMAP
6030
28D0
0B40
0B40
29D0
6060
ENDCHAR
STARTCHAR Oslash
ENCODING 216
SWIDTH 655 0
DWIDTH 9 0
BBX 9 13 1 -1
BITMAP
000140
00BF40
038F80
0B1A80
1D3280
389380
748740
B24B00
B60E00
A82C00
78B000
3F8000
900000
ENDCHAR
STARTCHAR Ugrave
ENCODING 217
SWIDTH 624 0
DWIDTH 9 0
BBX 10 14 0 0
BITMAP
001400
003800
001900
0780A0
0381D0
0742C0
0B0380
0E0B40
2C0F00
382E00
746D00
B09D00
B25C00
790E40
ENDCHAR
STARTCHAR Uacute
ENCODING 218
SWIDTH 624 0
DWIDTH 9 0
BBX 10 14 0 0
BITMAP
000140
000280
000A00
0780A0
0381D0
0742C0
0B0380
0E0B40
2C0F00
382E00
746D00
B09D00
B25C00
790E40
ENDCHAR
STARTCHAR Ucircumflex
ENCODING 219
SWIDTH 624 0
DWIDTH 9 0
BBX 10 14 0 0
BITMAP
000100
000B40
006680
0780A0
0381D0
0742C0
0B0380
0E0B40
2C0F00
382E00
746D00
B09D00
B25C00
790E40
ENDCHAR
STARTCHAR Udieresis
ENCODING 220
SWIDTH 624 0
DWIDTH 9 0
BBX 10 14 0 0
BITMAP
005040
00B6D0
005040
0780A0
0381D0
0742C0
0B0380
0E0B40
2C0F00
382E00
746D00
B09D00
B25C00
790E40
ENDCHAR
STARTCHAR Yacute
ENCODING 221
SWIDTH 580 0
DWIDTH 8 0
BBX 10 18 0 -4
BITMAP
000140
000380
000A00
0740A0
0381D0
0742C0
0B0780
0E0B40
2C1F00
382D00
747C00
B0A800
A27400
797000
00D000
028000
0A0000
280000
ENDCHAR
STARTCHAR Thorn
ENCODING 222
SWIDTH 527 0
DWIDTH 7 0
BBX 9 11 -1 0
BITMAP
0BC000
01D000
01D000
02E900
038340
074380
0B0B40
0FBD00
1E5000
380000
A00000
ENDCHAR
STARTCHAR germandbls
ENCODING 223
SWIDTH 520 0
DWIDTH 7 0
BBX 9 14 -1 -2
BITMAP
002A00
00A240
01C340
028740
034E00
072800
0A3400
0E3400
0D2C00
1C0E00
29CA00
38B800
740000
A00000
ENDCHAR
STARTCHAR agrave
ENCODING 224
SWIDTH 541 0
DWIDTH 8 0
BBX 8 12 0 -1
BITMAP
0090
00D0
00A0
0010
02AD
1D2C
2838
7474
70B0
72A0
297C
0010
ENDCHAR
STARTCHAR aacute
ENCODING 225
SWIDTH 541 0
DWIDTH 8 0
BBX 8 12 0 -1
BITMAP
0014
0038
00A0
0040
02AD
1D2C
2838
7474
70B0
72A0
297C
0010
ENDCHAR
STARTCHAR acircumflex
ENCODING 226
SWIDTH 541 0
DWIDTH 8 0
BBX 8 12 0 -1
BITMAP
0018
00AC
034D
0000
02AD
1D2C
2838
7474
70B0
72A0
297C
0010
ENDCHAR
STARTCHAR atilde
ENCODING 227
SWIDTH 541 0
DWIDTH 8 0
BBX 8 12 0 -1
BITMAP
0191
0272
0128
0000
02AD
1D2C
2838
7474
70B0
72A0
297C
0010
ENDCHAR
STARTCHAR adieresis
ENCODING 228
SWIDTH 541 0
DWIDTH 8 0
BBX 8 12 0 -1
BITMAP
038B
038E
0000
0000
02AD
1D2C
2838
7474
70B0
72A0
297C
0010
ENDCHAR
STARTCHAR aring
ENCODING 229
SWIDTH 541 0
DWIDTH 8 0
BBX 8 12 0 -1
BITMAP
00A8
018D
01A4
0000
02AD
1D2C
2838
7474
70B0
72A0
297C
0010
ENDCHAR
STARTCHAR ae
ENCODING 230
SWIDTH 769 0
DWIDTH 11 0
BBX 11 7 0 0
BITMAP
02AEB0
1D2D34
283C74
7475F0
70BF80
72B410
2A2E90
ENDCHAR
STARTCHAR ccedilla
ENCODING 231
SWIDTH 465 0
DWIDTH 7 0
BBX 7 10 0 -3
BITMAP
06A0
1D34
3874
7450
B000
7050
2E80
0900
1D00
2800
ENDCHAR
STARTCHAR egrave
ENCODING 232
SWIDTH 471 0
DWIDTH 7 0
BBX 7 11 0 0
BITMAP
01C0
02C0
00C0
0040
02A0
0D34
2874
7AD0
7900
7450
2E80
ENDCHAR
STARTCHAR eacute
ENCODING 233
SWIDTH 471 0
DWIDTH 7 0
BBX 7 11 0 0
BITMAP
0020
0074
01D0
0100
02A0
0D34
2874
7AD0
7900
7450
2E80
ENDCHAR
STARTCHAR ecircumflex
ENCODING 234
SWIDTH 471 0
DWIDTH 7 0
BBX 7 11 0 0
BITMAP
0024
01F8
0A18
0000
02A0
0D34
2874
7AD0
7900
7450
2E80
ENDCHAR
STARTCHAR edieresis
ENCODING 235
SWIDTH 471 0
DWIDTH 7 0
BBX 8 11 0 0
BITMAP
0B5D
0B1D
0000
0000
02A0
0D34
28B0
7A80
7000
7450
2E80
ENDCHAR
STARTCHAR igrave
ENCODING 236
SWIDTH 286 0
DWIDTH 4 0
BBX 4 11 0 0
BITMAP
09
0E
0A
01
1D
0D
1C
34
70
B4
78
ENDCHAR
STARTCHAR iacute
ENCODING 237
SWIDTH 286 0
DWIDTH 4 0
BBX 5 11 0 0
BITMAP
0180
0380
0A00
0400
1D00
0D00
1C00
3400
7000
B400
7800
ENDCHAR
STARTCHAR icircumflex
ENCODING 238
SWIDTH 286 0
DWIDTH 4 0
BBX 6 11 0 0
BITMAP
0180
0AC0
3490
0000
1D00
0D00
1C00
3400
7000
B400
7800
ENDCHAR
STARTCHAR idieresis
ENCODING 239
SWIDTH 286 0
DWIDTH 4 0
BBX 6 11 0 0
BITMAP
38B0
38A0
0000
0000
1D00
0D00
1C00
3400
7000
B400
7800
ENDCHAR
STARTCHAR eth
ENCODING 240
SWIDTH 524 0
DWIDTH 7 0
BBX 9 12 0 0
BITMAP
001000
001800
001F80
00AD00
000D00
02AD00
0D2C00
282C00
743400
70B000
71D000
2E4000
ENDCHAR
STARTCHAR ntilde
ENCODING 241
SWIDTH 561 0
DWIDTH 8 0
BBX 8 11 0 0
BITMAP
0191
0272
0128
0000
1D6C
0D9D
1E2C
2C38
7474
B0B0
9078
ENDCHAR
STARTCHAR ograve
ENCODING 242
SWIDTH 514 0
DWIDTH 7 0
BBX 7 11 0 0
BITMAP
00A0
00E0
0060
0010
06A0
1E38
3838
7434
70B0
71D0
2E40
ENDCHAR
STARTCHAR oacute
ENCODING 243
SWIDTH 514 0
DWIDTH 7 0
BBX 7 11 0 0
BITMAP
0018
002C
0070
0040
06A0
1E38
3838
7434
70B0
71D0
2E40
ENDCHAR
STARTCHAR ocircumflex
ENCODING 244
SWIDTH 514 0
DWIDTH 7 0
BBX 8 11 0 0
BITMAP
0018
00AD
0389
0000
06A0
1E38
3838
7434
70B0
71D0
2E40
ENDCHAR
STARTCHAR otilde
ENCODING 245
SWIDTH 514 0
DWIDTH 7 0
BBX 8 11 0 0
BITMAP
01A1
0232
0118
0000
06A0
1E38
3838
7434
70B0
71D0
2E40
ENDCHAR
STARTCHAR odieresis
ENCODING 246
SWIDTH 514 0
DWIDTH 7 0
BBX 8 11 0 0
BITMAP
028B
038A
0000
0000
06A0
1E38
3838
7434
70B0
71D0
2E40
ENDCHAR
STARTCHAR divide
ENCODING 247
SWIDTH 617 0
DWIDTH 9 0
BBX 7 7 1 2
BITMAP
0740
0240
0000
AAA8
0000
0740
0600
ENDCHAR
STARTCHAR oslash
ENCODING 248
SWIDTH 514 0
DWIDTH 7 0
BBX 8 9 0 -1
BITMAP
001D
06F4
1E78
38A8
7638
75B0
79D0
3E40
6000
ENDCHAR
STARTCHAR ugrave
ENCODING 249
SWIDTH 553 0
DWIDTH 8 0
BBX 8 11 0 0
BITMAP
0070
00B0
0030
0010
1D0A
0D1D
1C38
38B4
75B0
B6B4
7878
ENDCHAR
STARTCHAR uacute
ENCODING 250
SWIDTH 553 0
DWIDTH 8 0
BBX 8 11 0 0
BITMAP
0008
001C
0074
0040
1D0A
0D1D
1C38
3874
75B0
B2B0
7878
ENDCHAR
STARTCHAR ucircumflex
ENCODING 251
SWIDTH 553 0
DWIDTH 8 0
BBX 8 11 0 0
BITMAP
0009
007D
0286
0000
1D0A
0D1D
1C38
3874
75B0
B2B0
7878
ENDCHAR
STARTCHAR udieresis
ENCODING 252
SWIDTH 553 0
DWIDTH 8 0
BBX 9 11 0 0
BITMAP
02D740
02C740
000000
000000
1D0A00
0D1D00
1C3800
387400
75B000
B2B000
787800
ENDCHAR
STARTCHAR yacute
ENCODING 253
SWIDTH 549 0
DWIDTH 8 0
BBX 8 15 0 -4
BITMAP
0018
0028
00B0
0040
1D0A
0E1D
1D2C
3878
74B4
B270
78A0
00D0
0280
0B00
2800
ENDCHAR
STARTCHAR thorn
ENCODING 254
SWIDTH 552 0
DWIDTH 8 0
BBX 8 15 -1 -4
BITMAP
00A0
00A0
00D0
01C0
02AE
03D7
0747
0A0B
0D0E
1D28
2AE0
3400
7000
E000
D000
ENDCHAR
STARTCHAR ydieresis
ENCODING 255
SWIDTH 549 0
DWIDTH 8 0
BBX 8 15 0 -4
BITMAP
038B
038A
0000
0000
1D0A
0E1D
1D2C
3878
74B4
B270
78A0
00D0
0280
0B00
2800
ENDCHAR
STARTCHAR Amacron
ENCODING 256
SWIDTH 615 0
DWIDTH 9 0
BBX 11 13 -1 0
BITMAP
0006A8
000000
0001B0
000AA0
0028D0
0061C0
00C380
06FFE0
0B5B40
090B00
1C0E00
340E00
E00780
ENDCHAR
STARTCHAR amacron
ENCODING 257
SWIDTH 543 0
DWIDTH 8 0
BBX 8 10 0 -1
BITMAP
02A9
0000
02AD
0D2C
2838
7474
70B0
72B0
297C
0010
ENDCHAR
STARTCHAR Abreve
ENCODING 258
SWIDTH 615 0
DWIDTH 9 0
BBX 11 14 -1 0
BITMAP
000100
000348
0001E4
0001B0
000AA0
0028D0
0061C0
00C380
06FFE0
0B5B40
090A00
1C0E00
340E40
E00780
ENDCHAR
STARTCHAR abreve
ENCODING 259
SWIDTH 543 0
DWIDTH 8 0
BBX 8 12 0 -1
BITMAP
0182
01C5
00A4
0000
02AD
0D2C
2838
7474
70B0
72B0
297C
0010
ENDCHAR
STARTCHAR Aogonek
ENCODING 260
SWIDTH 615 0
DWIDTH 9 0
BBX 10 14 -1 -3
BITMAP
0001B0
000AA0
0028D0
0061C0
00C380
06FFE0
0B5B40
090A00
1C0E00
340E40
E00B40
000900
002800
002900
ENDCHAR
STARTCHAR aogonek
ENCODING 261
SWIDTH 541 0
DWIDTH 8 0
BBX 8 10 0 -3
BITMAP
02AD
1D2C
2838
7474
70B0
72A0
2978
0060
01C0
01E0
ENDCHAR
STARTCHAR Cacute
ENCODING 262
SWIDTH 533 0
DWIDTH 7 0
BBX 10 14 0 0
BITMAP
000040
0001D0
000240
006A00
02D240
074340
0E0B00
2C1D00
380000
340000
740000
740000
382400
1EE000
ENDCHAR
STARTCHAR cacute
ENCODING 263
SWIDTH 468 0
DWIDTH 7 0
BBX 8 11 0 0
BITMAP
0009
001D
0038
0050
06A0
1D34
3874
7450
7000
7450
2E40
ENDCHAR
STARTCHAR Ccircumflex
ENCODING 264
SWIDTH 533 0
DWIDTH 7 0
BBX 10 14 0 0
BITMAP
000140
0007C0
0029D0
006A00
02D240
074340
0E0B00
2C1D00
380000
340000
740000
740000
382400
1EE000
ENDCHAR
STARTCHAR ccircumflex
ENCODING 265
SWIDTH 468 0
DWIDTH 7 0
BBX 8 11 0 0
BITMAP
0018
00AC
034D
0000
06A0
1D34
3874
7450
7000
7450
2E40
ENDCHAR
STARTCHAR Cdotaccent
ENCODING 266
SWIDTH 533 0
DWIDTH 7 0
BBX 9 14 0 0
BITMAP
000500
000F00
000500
006A00
02D240
074340
0E0B00
2C1D00
380000
340000
740000
740000
382400
1EE000
ENDCHAR
STARTCHAR cdotaccent
ENCODING 267
SWIDTH 468 0
DWIDTH 7 0
BBX 7 11 0 0
BITMAP
0074
0074
0000
0000
06A0
1D34
3874
7450
7000
7450
2E40
ENDCHAR
STARTCHAR Ccaron
ENCODING 268
SWIDTH 533 0
DWIDTH 7 0
BBX 10 14 0 0
BITMAP
001410
001EA0
000500
006A00
02D240
074340
0E0B00
2C1D00
380000
340000
740000
740000
382400
1EE000
ENDCHAR
STARTCHAR ccaron
ENCODING 269
SWIDTH 468 0
DWIDTH 7 0
BBX 9 11 0 0
BITMAP
008240
00DA00
00B400
000000
06A000
1D3400
387400
745000
700000
745000
2E4000
ENDCHAR
STARTCHAR Dcaron
ENCODING 270
SWIDTH 630 0
DWIDTH 9 0
BBX 9 14 0 0
BITMAP
001040
002A80
001800
1BA900
190740
0382C0
0741C0
0E02C0
1D0380
2C0740
380E00
742C00
71A000
2A4000
ENDCHAR
STARTCHAR dcaron
ENCODING 271
SWIDTH 557 0
DWIDTH 8 0
BBX 12 12 0 0
BITMAP
000044
0002CD
00038C
000724
000A00
02AD00
0E2D00
2C2C00
343800
74B400
71F000
2A3900
ENDCHAR
STARTCHAR Dcroat
ENCODING 272
SWIDTH 630 0
DWIDTH 9 0
BBX 9 11 0 0
BITMAP
1BE900
1D0740
024280
0742C0
0E02C0
7FE380
3D4740
380E00
743800
71E000
2A4000
ENDCHAR
STARTCHAR dcroat
ENCODING 273
SWIDTH 557 0
DWIDTH 8 0
BBX 10 12 0 0
BITMAP
000040
0002C0
007FD0
000700
000A00
02AD00
0E2C00
2C2C00
343800
74B400
71F000
2A3900
ENDCHAR
STARTCHAR Emacron
ENCODING 274
SWIDTH 509 0
DWIDTH 7 0
BBX 9 13 0 0
BITMAP
00AA40
000000
00BA00
078300
0E0B00
1D2D00
1C0000
0E8000
0B8000
3D0000
741000
747000
2F9000
ENDCHAR
STARTCHAR emacron
ENCODING 275
SWIDTH 471 0
DWIDTH 7 0
BBX 7 9 0 0
BITMAP
06A8
0000
02A0
0D34
2874
7AD0
7900
7450
2E80
ENDCHAR
STARTCHAR Ebreve
ENCODING 276
SWIDTH 509 0
DWIDTH 7 0
BBX 9 14 0 0
BITMAP
001040
007180
002900
00BA00
078300
0E0B00
1D2D00
1C0000
0E8000
0B8000
3D0000
741000
747000
2F9000
ENDCHAR
STARTCHAR ebreve
ENCODING 277
SWIDTH 471 0
DWIDTH 7 0
BBX 7 11 0 0
BITMAP
0204
0348
01A0
0000
02A0
0D34
2874
7AD0
7900
7450
2E80
ENDCHAR
STARTCHAR Edotaccent
ENCODING 278
SWIDTH 509 0
DWIDTH 7 0
BBX 8 14 0 0
BITMAP
0014
003C
0014
00BA
0783
0E0B
1D2D
1C00
0E80
0B80
3D00
7410
7470
2F90
ENDCHAR
STARTCHAR edotaccent
ENCODING 279
SWIDTH 471 0
DWIDTH 7 0
BBX 7 11 0 0
BITMAP
00E0
00E0
0000
0000
02A0
0D34
2874
7AD0
7900
7450
2E80
ENDCHAR
STARTCHAR Eogonek
ENCODING 280
SWIDTH 509 0
DWIDTH 7 0
BBX 8 14 0 -3
BITMAP
00BA
0783
0E0B
1D2D
1C00
0E80
0B80
3D00
7410
7470
2F80
0A00
1C00
1E00
ENDCHAR
STARTCHAR eogonek
ENCODING 281
SWIDTH 471 0
DWIDTH 7 0
BBX 7 10 0 -3
BITMAP
02A0
0D34
2874
7AD0
7900
7450
2F80
0600
1C00
1E00
ENDCHAR
STARTCHAR Ecaron
ENCODING 282
SWIDTH 509 0
DWIDTH 7 0
BBX 9 14 0 0
BITMAP
005040
007A40
001400
00BA00
078300
0E0B00
1D2D00
1C0000
0E8000
0B8000
3D0000
741000
747000
2F9000
ENDCHAR
STARTCHAR ecaron
ENCODING 283
SWIDTH 471 0
DWIDTH 7 0
BBX 8 11 0 0
BITMAP
0246
01DD
00E0
0000
02A0
0D34
2874
7AD0
7900
7450
2E80
ENDCHAR
STARTCHAR Gcircumflex
ENCODING 284
SWIDTH 598 0
DWIDTH 8 0
BBX 10 14 0 0
BITMAP
000140
000780
0029D0
006A00
01D240
074380
0E0B40
2D1E00
380800
340000
747F00
742800
382000
1E9000
ENDCHAR
STARTCHAR gcircumflex
ENCODING 285
SWIDTH 526 0
DWIDTH 7 0
BBX 8 15 0 -4
BITMAP
0018
00AC
0349
0000
02A5
0D2D
282C
7438
70B4
71F0
2EA0
00C0
0280
0B00
2800
ENDCHAR
STARTCHAR Gbreve
ENCODING 286
SWIDTH 598 0
DWIDTH 8 0
BBX 10 14 0 0
BITMAP
000410
001C60
000A80
006A00
01D240
074380
0E0B40
2D1E00
380800
340000
747F00
742800
382000
1E9000
ENDCHAR
STARTCHAR gbreve
ENCODING 287
SWIDTH 526 0
DWIDTH 7 0
BBX 8 15 0 -4
BITMAP
0182
01C5
00A4
0000
02A5
0D2D
282C
7438
70B4
71F0
2EA0
00C0
0280
0B00
2800
ENDCHAR
STARTCHAR Gdotaccent
ENCODING 288
SWIDTH 598 0
DWIDTH 8 0
BBX 9 14 0 0
BITMAP
000500
000F00
000500
006A00
01D240
074380
0E0B40
2D1E00
380800
340000
747F00
742800
382000
1E9000
ENDCHAR
STARTCHAR gdotaccent
ENCODING 289
SWIDTH 526 0
DWIDTH 7 0
BBX 8 15 0 -4
BITMAP
0074
0074
0000
0000
02A5
0D2D
282C
7438
70B4
71F0
2EA0
00C0
0280
0B00
2800
ENDCHAR
STARTCHAR Gcommaaccent
ENCODING 290
SWIDTH 598 0
DWIDTH 8 0
BBX 9 15 0 -4
BITMAP
006A00
01D240
074380
0E0B40
2D1E00
380800
340000
747F00
742800
382000
1E9000
040000
1D0000
1C0000
240000
ENDCHAR
STARTCHAR gcommaaccent
ENCODING 291
SWIDTH 526 0
DWIDTH 7 0
BBX 8 15 0 -4
BITMAP
0018
0070
0064
0000
02A5
0D2D
282C
7438
70B4
71F0
2EA0
00C0
0280
0B00
2800
ENDCHAR
STARTCHAR Hcircumflex
ENCODING 292
SWIDTH 668 0
DWIDTH 9 0
BBX 11 14 -1 0
BITMAP
000040
0007C0
0019A0
07D028
00E028
00D038
01D074
02C0B0
07EAF0
0741C0
0B0280
0D0340
280700
600380
ENDCHAR
STARTCHAR hcircumflex
ENCODING 293
SWIDTH 555 0
DWIDTH 8 0
BBX 8 14 0 0
BITMAP
0090
06A0
1970
0340
0340
0740
0B00
0E6C
1D5D
2E2C
3C78
74B0
B0A0
9078
ENDCHAR
STARTCHAR Hbar
ENCODING 294
SWIDTH 668 0
DWIDTH 9 0
BBX 12 11 -1 0
BITMAP
07D018
00E028
01E038
0FEAB9
01C0B0
07EAF0
0741C0
0B0280
0D0340
280740
600380
ENDCHAR
STARTCHAR hbar
ENCODING 295
SWIDTH 555 0
DWIDTH 8 0
BBX 8 12 0 0
BITMAP
0140
0280
1BE4
0740
0B00
0A6C
0D5D
1E2C
3C78
74B0
B0A0
9078
ENDCHAR
STARTCHAR Itilde
ENCODING 296
SWIDTH 327 0
DWIDTH 5 0
BBX 7 13 0 0
BITMAP
0684
08A4
1F40
02C0
0380
0340
0740
0B00
0E00
1D00
2800
7400
D000
ENDCHAR
STARTCHAR itilde
ENCODING 297
SWIDTH 286 0
DWIDTH 4 0
BBX 6 11 0 0
BITMAP
1910
2320
1280
0000
1D00
0D00
1C00
3400
7000
B400
7800
ENDCHAR
STARTCHAR Imacron
ENCODING 298
SWIDTH 327 0
DWIDTH 5 0
BBX 7 13 0 0
BITMAP
0AA4
0000
1F40
02C0
0380
0340
0740
0B00
0E00
1D00
2800
7400
D000
ENDCHAR
STARTCHAR imacron
ENCODING 299
SWIDTH 286 0
DWIDTH 4 0
BBX 6 9 0 0
BITMAP
2A90
0000
1D00
0D00
1C00
3400
7000
B400
7800
ENDCHAR
STARTCHAR Ibreve
ENCODING 300
SWIDTH 327 0
DWIDTH 5 0
BBX 7 14 0 0
BITMAP
0104
0718
02A0
1F40
02C0
0380
0340
0740
0B00
0E00
1D00
2800
7400
D000
ENDCHAR
STARTCHAR ibreve
ENCODING 301
SWIDTH 286 0
DWIDTH 4 0
BBX 6 11 0 0
BITMAP
1820
1C50
0A40
0000
1D00
0D00
1C00
3400
7000
B400
7800
ENDCHAR
STARTCHAR Iogonek
ENCODING 302
SWIDTH 327 0
DWIDTH 5 0
BBX 7 14 -2 -3
BITMAP
01F4
0028
0038
0034
0074
00B0
00E0
01C0
0380
0B00
1D00
7000
A000
A400
ENDCHAR
STARTCHAR iogonek
ENCODING 303
SWIDTH 297 0
DWIDTH 4 0
BBX 6 14 -1 -3
BITMAP
01D0
01D0
0000
0000
0780
0340
0700
0A00
0D00
1D00
1E00
1800
7400
7800
ENDCHAR
STARTCHAR Idotaccent
ENCODING 304
SWIDTH 327 0
DWIDTH 5 0
BBX 5 14 0 0
BITMAP
0140
03C0
0140
1F40
02C0
0380
0340
0740
0B00
0E00
1D00
2800
7400
D000
ENDCHAR
STARTCHAR dotlessi
ENCODING 305
SWIDTH 286 0
DWIDTH 4 0
BBX 4 7 0 0
BITMAP
1D
0D
1C
34
70
B4
78
ENDCHAR
STARTCHAR IJ
ENCODING 306
SWIDTH 720 0
DWIDTH 10 0
BBX 11 15 0 -4
BITMAP
1F46F4
02ED34
038474
0340B0
0740F0
0B00E0
0E01D0
1D03C0
280740
740B00
D01D00
002C00
007400
01D000
0A4000
ENDCHAR
STARTCHAR ij
ENCODING 307
SWIDTH 567 0
DWIDTH 8 0
BBX 8 15 0 -4
BITMAP
074B
074A
0000
0000
1D1D
0D1D
1C1C
342C
7038
B434
78B0
00D0
01C0
0740
1900
ENDCHAR
STARTCHAR Jcircumflex
ENCODING 308
SWIDTH 393 0
DWIDTH 6 0
BBX 10 18 -3 -4
BITMAP
000040
0002E0
000A70
006F80
00E2C0
004380
000380
000740
000B00
000E00
001D00
003C00
007400
00B000
01D000
038000
0E0000
780000
ENDCHAR
STARTCHAR jcircumflex
ENCODING 309
SWIDTH 282 0
DWIDTH 4 0
BBX 8 15 -3 -4
BITMAP
0004
001E
00A7
0141
0074
0074
0074
00B0
00E0
00D0
02C0
0340
0700
1D00
6400
ENDCHAR
STARTCHAR Kcommaaccent
ENCODING 310
SWIDTH 616 0
DWIDTH 9 0
BBX 10 15 -1 -4
BITMAP
0B80A0
05D0B0
01D0E0
02C1D0
038740
03A800
07F000
0F7400
1D2D00
280E00
600790
010000
038000
034000
060000
ENDCHAR
STARTCHAR kcommaaccent
ENCODING 311
SWIDTH 497 0
DWIDTH 7 0
BBX 7 15 0 -4
BITMAP
0280
0380
0340
0700
0A2C
0D2C
1DB4
2F40
7B40
B3D4
91F4
0400
2C00
1800
2000
ENDCHAR
STARTCHAR kgreenlandic
ENCODING 312
SWIDTH 497 0
DWIDTH 7 0
BBX 7 7 0 0
BITMAP
1D2C
1D2C
1CB4
2F90
7F00
B280
91E4
ENDCHAR
STARTCHAR Lacute
ENCODING 313
SWIDTH 517 0
DWIDTH 7 0
BBX 9 14 0 0
BITMAP
000100
000340
000A00
006900
01D600
038A00
071E00
0E7C00
1D1000
2C0000
380000
700000
E6A000
FAA400
ENDCHAR
STARTCHAR lacute
ENCODING 314
SWIDTH 279 0
DWIDTH 4 0
BBX 7 14 0 0
BITMAP
0010
0074
0190
0300
0740
0700
0A00
0D00
1C00
2800
3400
7000
B000
7800
ENDCHAR
STARTCHAR Lcommaaccent
ENCODING 315
SWIDTH 517 0
DWIDTH 7 0
BBX 8 15 0 -4
BITMAP
0069
01D6
038A
071E
0E7C
1D10
2C00
3800
7000
E6A0
FAA4
1000
3800
3400
6000
ENDCHAR
STARTCHAR lcommaaccent
ENCODING 316
SWIDTH 279 0
DWIDTH 4 0
BBX 5 15 0 -4
BITMAP
0340
0340
0700
0B00
0E00
1C00
2800
3400
7000
B000
7800
1000
B000
7000
9000
ENDCHAR
STARTCHAR Lcaron
ENCODING 317
SWIDTH 517 0
DWIDTH 7 0
BBX 11 13 0 0
BITMAP
000034
000034
006970
01D640
038A00
071E00
0E7C00
1D1000
2C0000
380000
700000
E6A000
FAA400
ENDCHAR
STARTCHAR lcaron
ENCODING 318
SWIDTH 467 0
DWIDTH 7 0
BBX 8 12 0 0
BITMAP
0105
034A
0749
0718
0A00
0D00
1C00
2800
3400
7000
B000
7800
ENDCHAR
STARTCHAR Ldot
ENCODING 319
SWIDTH 668 0
DWIDTH 9 0
BBX 10 11 0 0
BITMAP
006900
01D600
038A00
071E00
0E7C00
1D1090
2C01D0
380040
700000
E6A000
FAA400
ENDCHAR
STARTCHAR ldot
ENCODING 320
SWIDTH 489 0
DWIDTH 7 0
BBX 7 12 0 0
BITMAP
0100
0340
0740
0700
0A00
0D00
1C14
2878
3420
7000
B000
7800
ENDCHAR
STARTCHAR Lslash
ENCODING 321
SWIDTH 517 0
DWIDTH 7 0
BBX 8 11 0 0
BITMAP
0069
01D6
0386
075E
0E3C
1D24
6E40
B800
7000
EAE0
FAA4
ENDCHAR
STARTCHAR lslash
ENCODING 322
SWIDTH 279 0
DWIDTH 4 0
BBX 6 12 0 0
BITMAP
0500
07E0
0740
0700
0A00
0D00
1C00
2800
3400
7000
B000
7800
ENDCHAR
STARTCHAR Nacute
ENCODING 323
SWIDTH 708 0
DWIDTH 10 0
BBX 11 14 0 0
BITMAP
000010
000074
000090
00B074
02F038
07A038
09A034
1CB070
28B0A0
3471C0
707640
A03B00
A02E00
900900
ENDCHAR
STARTCHAR nacute
ENCODING 324
SWIDTH 561 0
DWIDTH 8 0
BBX 8 11 0 0
BITMAP
0008
001D
0034
0040
1D6C
0D9D
1E2C
2C38
7474
B0B0
9078
ENDCHAR
STARTCHAR Ncommaaccent
ENCODING 325
SWIDTH 708 0
DWIDTH 10 0
BBX 11 15 0 -4
BITMAP
00B074
02F038
07A038
09A034
1CB070
28B0A0
3471C0
707640
A03B00
A02E00
900900
004000
02C000
018000
020000
ENDCHAR
STARTCHAR ncommaaccent
ENCODING 326
SWIDTH 561 0
DWIDTH 8 0
BBX 8 11 0 -4
BITMAP
1D6C
0D9D
1E2C
2C38
7474
B0B0
9078
0400
1C00
1C00
2400
ENDCHAR
STARTCHAR Ncaron
ENCODING 327
SWIDTH 708 0
DWIDTH 10 0
BBX 11 14 0 0
BITMAP
000504
0003A8
000140
00B074
02F038
07A038
09A034
1CB070
28B0A0
3471C0
707640
A03B00
A02E00
900900
ENDCHAR
STARTCHAR ncaron
ENCODING 328
SWIDTH 561 0
DWIDTH 8 0
BBX 9 11 0 0
BITMAP
008240
00DA00
00B400
000000
1D6C00
0D9D00
1E2C00
2C3800
747400
B0B000
907800
ENDCHAR
STARTCHAR Eng
ENCODING 330
SWIDTH 698 0
DWIDTH 10 0
BBX 11 15 0 -4
BITMAP
00A074
02E038
06E038
0DE034
1CE074
28A0B0
34B0D0
7075C0
A03A80
902F00
901E00
002800
007000
01D000
0A0000
ENDCHAR
STARTCHAR eng
ENCODING 331
SWIDTH 561 0
DWIDTH 8 0
BBX 8 11 0 -4
BITMAP
1D6C
0D9D
1E1C
2C28
7434
B070
90E0
01C0
0380
0A00
2800
ENDCHAR
STARTCHAR Omacron
ENCODING 332
SWIDTH 655 0
DWIDTH 9 0
BBX 9 13 1 0
BITMAP
00AA80
000000
01AD00
074700
1D0340
380340
740740
B00B00
E00E00
D02C00
D07400
A1E000
2A4000
ENDCHAR
STARTCHAR omacron
ENCODING 333
SWIDTH 514 0
DWIDTH 7 0
BBX 8 9 0 0
BITMAP
02A9
0000
06A0
1E38
3838
7434
70B0
71D0
2E40
ENDCHAR
STARTCHAR Obreve
ENCODING 334
SWIDTH 655 0
DWIDTH 9 0
BBX 9 14 1 0
BITMAP
001040
007180
002A00
01AD00
074700
1D0340
380340
740740
B00B00
E00E00
D02C00
D07400
A1E000
2A4000
ENDCHAR
STARTCHAR obreve
ENCODING 335
SWIDTH 514 0
DWIDTH 7 0
BBX 8 11 0 0
BITMAP
0182
01C5
00A4
0000
06A0
1E38
3838
7434
70B0
71D0
2E40
ENDCHAR
STARTCHAR Ohungarumlaut
ENCODING 336
SWIDTH 655 0
DWIDTH 9 0
BBX 9 14 1 0
BITMAP
000440
0028C0
006240
01AD00
074700
1D0340
380340
740740
B00B00
E00E00
D02C00
D07400
A1E000
2A4000
ENDCHAR
STARTCHAR ohungarumlaut
ENCODING 337
SWIDTH 514 0
DWIDTH 7 0
BBX 8 11 0 0
BITMAP
0052
00D7
029D
0110
06A0
1E38
3838
7434
70B0
71D0
2E40
ENDCHAR
STARTCHAR OE
ENCODING 338
SWIDTH 900 0
DWIDTH 13 0
BBX 14 11 1 0
BITMAP
006A6E80
02C2E090
0B42C1C0
1D034780
2C034100
3802A000
7402E400
700B4000
701E0400
347D1C00
1A97E400
ENDCHAR
STARTCHAR oe
ENCODING 339
SWIDTH 777 0
DWIDTH 11 0
BBX 10 7 1 0
BITMAP
0AD6D0
28BC70
B0B4A0
E0F6D0
D1F900
D3E080
7E7A40
ENDCHAR
STARTCHAR Racute
ENCODING 340
SWIDTH 623 0
DWIDTH 9 0
BBX 10 14 -1 0
BITMAP
000040
0001D0
000240
01BA40
0740D0
00A0A0
01D0E0
02C2C0
039F40
07F400
0B3800
0D1D00
2C0E00
7007D0
ENDCHAR
STARTCHAR racute
ENCODING 341
SWIDTH 407 0
DWIDTH 6 0
BBX 7 11 0 0
BITMAP
0024
0074
00E0
0140
1C74
1DB0
1E00
2C00
3800
B000
A000
ENDCHAR
STARTCHAR Rcommaaccent
ENCODING 342
SWIDTH 623 0
DWIDTH 9 0
BBX 10 15 -1 -4
BITMAP
01BA40
0740D0
00A0A0
01D0E0
02C2C0
039F40
07F400
0B3800
0D1D00
2C0E00
7007D0
010000
074000
034000
090000
ENDCHAR
STARTCHAR rcommaaccent
ENCODING 343
SWIDTH 407 0
DWIDTH 6 0
BBX 8 11 -1 -4
BITMAP
075D
076C
0780
0B00
0E00
2C00
2800
1000
7400
3000
9000
ENDCHAR
STARTCHAR Rcaron
ENCODING 344
SWIDTH 623 0
DWIDTH 9 0
BBX 10 14 -1 0
BITMAP
001410
001E90
000500
01BA40
0740D0
00A0A0
01D0E0
02C2C0
039F40
07F400
0B3800
0D1D00
2C0E00
7007D0
ENDCHAR
STARTCHAR rcaron
ENCODING 345
SWIDTH 407 0
DWIDTH 6 0
BBX 8 11 0 0
BITMAP
0245
02AC
01D0
0000
1C74
1DB0
1E00
2C00
3800
B000
A000
ENDCHAR
STARTCHAR Sacute
ENCODING 346
SWIDTH 474 0
DWIDTH 7 0
BBX 9 14 0 0
BITMAP
000100
000740
000900
01E800
0B0900
0D0A00
1D1D00
1D3C00
1E0000
0B4000
03C000
61C000
A18000
6A0000
ENDCHAR
STARTCHAR sacute
ENCODING 347
SWIDTH 423 0
DWIDTH 6 0
BBX 7 11 0 0
BITMAP
0024
0034
00A0
0140
0AD0
2CB0
2C50
0E00
0740
9340
7E00
ENDCHAR
STARTCHAR Scircumflex
ENCODING 348
SWIDTH 474 0
DWIDTH 7 0
BBX 9 14 0 0
BITMAP
000400
001E00
00A740
01E800
0B0900
0D0A00
1D1D00
1D3C00
1E0000
0B4000
03C000
61C000
A18000
6A0000
ENDCHAR
STARTCHAR scircumflex
ENCODING 349
SWIDTH 423 0
DWIDTH 6 0
BBX 7 11 0 0
BITMAP
0024
01F4
0A18
0000
0AD0
2CB0
2C50
0E00
0740
9340
7E00
ENDCHAR
STARTCHAR Scedilla
ENCODING 350
SWIDTH 474 0
DWIDTH 7 0
BBX 8 14 0 -3
BITMAP
01E8
0B09
1D0A
1D2D
1D24
0F00
0780
51C0
A1C0
7B40
1C00
1C00
3800
1000
ENDCHAR
STARTCHAR scedilla
ENCODING 351
SWIDTH 423 0
DWIDTH 6 0
BBX 6 10 0 -3
BITMAP
0AD0
1CB0
2C50
1E00
0B40
9340
BA00
2400
2800
B000
ENDCHAR
STARTCHAR Scaron
ENCODING 352
SWIDTH 474 0
DWIDTH 7 0
BBX 9 14 0 0
BITMAP
005040
007A40
001400
01E800
0B0900
0D0A00
1D1D00
1D3C00
1E0000
0B4000
03C000
61C000
A18000
6A0000
ENDCHAR
STARTCHAR scaron
ENCODING 353
SWIDTH 423 0
DWIDTH 6 0
BBX 8 11 0 0
BITMAP
0246
019D
01E0
0000
0AD0
2CB0
2C50
0E00
0740
9340
7E00
ENDCHAR
STARTCHAR Tcommaaccent
ENCODING 354
SWIDTH 471 0
DWIDTH 7 0
BBX 8 15 1 -4
BITMAP
7A42
E2E9
C380
0740
0B00
0B00
0E00
1D00
2800
7400
D000
0000
B000
A000
8000
ENDCHAR
STARTCHAR tcommaaccent
ENCODING 355
SWIDTH 358 0
DWIDTH 5 0
BBX 6 13 0 -4
BITMAP
0100
0700
2F90
1C00
2800
3400
7400
7640
2E00
1000
7400
7000
9000
ENDCHAR
STARTCHAR Tcaron
ENCODING 356
SWIDTH 471 0
DWIDTH 7 0
BBX 8 14 1 0
BITMAP
0041
00AA
0060
7A42
E2E9
C380
0740
0B00
0B00
0E00
1D00
2800
7400
D000
ENDCHAR
STARTCHAR tcaron
ENCODING 357
SWIDTH 497 0
DWIDTH 7 0
BBX 8 12 1 0
BITMAP
0004
001D
000C
0624
0E00
7E80
3800
3400
7000
A000
A600
7900
ENDCHAR
STARTCHAR Tbar
ENCODING 358
SWIDTH 471 0
DWIDTH 7 0
BBX 8 11 1 0
BITMAP
7A42
E2E9
C380
0340
0740
AF80
0E00
1D00
2800
7400
D000
ENDCHAR
STARTCHAR tbar
ENCODING 359
SWIDTH 358 0
DWIDTH 5 0
BBX 6 9 0 0
BITMAP
0340
0B00
2F90
1C00
7E80
3400
7000
7640
2E00
ENDCHAR
STARTCHAR Utilde
ENCODING 360
SWIDTH 624 0
DWIDTH 9 0
BBX 10 13 0 0
BITMAP
002950
008680
0780A0
0381D0
0742C0
0B0380
0E0B40
2C0F00
382E00
746D00
B09D00
B25C00
790E40
ENDCHAR
STARTCHAR utilde
ENCODING 361
SWIDTH 553 0
DWIDTH 8 0
BBX 9 11 0 0
BITMAP
00A040
022540
011900
000000
1D0A00
0D1D00
1C3800
387400
75B000
B2B000
787800
ENDCHAR
STARTCHAR Umacron
ENCODING 362
SWIDTH 624 0
DWIDTH 9 0
BBX 10 13 0 0
BITMAP
006A80
000000
0780A0
0381D0
0742C0
0B0380
0E0B40
2C0F00
382E00
746D00
B09D00
B25C00
790E40
ENDCHAR
STARTCHAR umacron
ENCODING 363
SWIDTH 553 0
DWIDTH 8 0
BBX 8 9 0 0
BITMAP
01AA
0000
1D0A
0D1D
1C38
3874
75B0
B2B0
7878
ENDCHAR
STARTCHAR Ubreve
ENCODING 364
SWIDTH 624 0
DWIDTH 9 0
BBX 10 14 0 0
BITMAP
001000
003480
001A00
0780A0
0381D0
0742C0
0B0380
0E0B40
2C0F00
382E00
746D00
B09D00
B25C00
790E40
ENDCHAR
STARTCHAR ubreve
ENCODING 365
SWIDTH 553 0
DWIDTH 8 0
BBX 8 11 0 0
BITMAP
0081
00D2
0068
0000
1D0A
0D1D
1C38
3874
75B0
B2B0
7878
ENDCHAR
STARTCHAR Uring
ENCODING 366
SWIDTH 624 0
DWIDTH 9 0
BBX 10 14 0 0
BITMAP
000A40
002580
003680
079AA0
0381D0
0742C0
0B0380
0E0B40
2C0F00
382E00
746D00
B09D00
B25C00
790E40
ENDCHAR
STARTCHAR uring
ENCODING 367
SWIDTH 553 0
DWIDTH 8 0
BBX 8 11 0 0
BITMAP
006D
00DA
00A8
0000
1D0A
0D1D
1C38
3874
75B0
B2B0
7878
ENDCHAR
STARTCHAR Uhungarumlaut
ENCODING 368
SWIDTH 624 0
DWIDTH 9 0
BBX 10 14 0 0
BITMAP
000450
001CD0
002680
0780A0
0381D0
0742C0
0B0380
0E0B40
2C0F00
382E00
746D00
B09D00
B25C00
790E40
ENDCHAR
STARTCHAR uhungarumlaut
ENCODING 369
SWIDTH 553 0
DWIDTH 8 0
BBX 9 11 0 0
BITMAP
002240
00A340
01C900
011400
1D0A00
0D1D00
1C3800
387400
75B000
B2B000
787800
ENDCHAR
STARTCHAR Uogonek
ENCODING 370
SWIDTH 684 0
DWIDTH 10 0
BBX 10 14 0 -3
BITMAP
02C070
02C0A0
0381D0
0742C0
0B0780
0E0B40
1C1F00
382A00
345A00
758E00
290B80
000A00
002800
002900
ENDCHAR
STARTCHAR uogonek
ENCODING 371
SWIDTH 553 0
DWIDTH 8 0
BBX 8 10 0 -3
BITMAP
1D0A
0D1D
1C38
3874
75B0
B2B0
7878
0060
01C0
01E0
ENDCHAR
STARTCHAR Wcircumflex
ENCODING 372
SWIDTH 941 0
DWIDTH 13 0
BBX 13 14 1 0
BITMAP
00004000
0002E000
000A7000
79000380
070003C0
0F0782C0
1D1F0280
3C7D0380
78FC0740
B2A80B00
E7380D00
D9342800
E838A000
B01E4000
ENDCHAR
STARTCHAR wcircumflex
ENCODING 373
SWIDTH 750 0
DWIDTH 11 0
BBX 11 11 0 0
BITMAP
000600
001F40
00A280
000000
1D0470
0D2C74
1C7430
28F060
36A090
79B280
747D00
ENDCHAR
STARTCHAR Ycircumflex
ENCODING 374
SWIDTH 580 0
DWIDTH 8 0
BBX 10 18 0 -4
BITMAP
000100
001F00
006680
0740A0
0381D0
0742C0
0B0780
0E0B40
2C1F00
382D00
747C00
B0A800
A27400
797000
00D000
028000
0A0000
280000
ENDCHAR
STARTCHAR ycircumflex
ENCODING 375
SWIDTH 549 0
DWIDTH 8 0
BBX 8 15 0 -4
BITMAP
0018
00AC
0349
0000
1D0A
0E1D
1D2C
3878
74B4
B270
78A0
00D0
0280
0B00
2800
ENDCHAR
STARTCHAR Ydieresis
ENCODING 376
SWIDTH 580 0
DWIDTH 8 0
BBX 10 17 0 -4
BITMAP
00B1D0
00B2C0
0740A0
0381D0
0742C0
0B0780
0E0B40
2C1F00
382D00
747C00
B0A800
A27400
797000
00D000
028000
0A0000
280000
ENDCHAR
STARTCHAR Zacute
ENCODING 377
SWIDTH 501 0
DWIDTH 7 0
BBX 9 14 0 0
BITMAP
000500
000A00
002800
181B00
0FEB40
001E00
003800
00E000
028000
0A0000
280000
700000
EAA000
E41400
ENDCHAR
STARTCHAR zacute
ENCODING 378
SWIDTH 430 0
DWIDTH 6 0
BBX 7 11 0 0
BITMAP
0014
0038
00A0
0040
1EB4
05B0
02D0
0B00
2800
B540
AAC0
ENDCHAR
STARTCHAR Zdotaccent
ENCODING 379
SWIDTH 501 0
DWIDTH 7 0
BBX 9 14 0 0
BITMAP
001000
00B400
001000
181B00
0FEB40
001E00
003800
00E000
028000
0A0000
280000
700000
EBF400
E96400
ENDCHAR
STARTCHAR zdotaccent
ENCODING 380
SWIDTH 430 0
DWIDTH 6 0
BBX 7 11 0 0
BITMAP
01D0
01D0
0000
0000
1EB4
05B0
02D0
0B00
2800
B540
AAC0
ENDCHAR
STARTCHAR Zcaron
ENCODING 381
SWIDTH 501 0
DWIDTH 7 0
BBX 9 14 0 0
BITMAP
004100
00AA00
006400
181B00
0FEB40
001E00
003800
00E000
028000
0A0000
280000
700000
EAA000
E41400
ENDCHAR
STARTCHAR zcaron
ENCODING 382
SWIDTH 430 0
DWIDTH 6 0
BBX 8 11 0 0
BITMAP
0205
03A8
02D0
0000
1EB4
05B0
02D0
0B00
2800
B540
AAC0
ENDCHAR
STARTCHAR florin
ENCODING 402
SWIDTH 466 0
DWIDTH 7 0
BBX 11 15 -3 -4
BITMAP
0000A4
000288
00071C
000A38
000D00
006FC0
00B900
003400
007400
00B000
00A000
00D000
01C000
A34000
7E0000
ENDCHAR
STARTCHAR AEacute
ENCODING 508
SWIDTH 878 0
DWIDTH 12 0
BBX 15 14 -1 0
BITMAP
00000100
00000740
00000900
0001BBA0
000A7C24
001CB070
0034E1E0
00A1D040
01D0D000
07EAF900
0A02D000
1D038100
28034700
A001F900
ENDCHAR
STARTCHAR aeacute
ENCODING 509
SWIDTH 770 0
DWIDTH 11 0
BBX 11 11 0 0
BITMAP
000200
000740
000D00
001000
02AEB0
0D2D38
283C74
7475F0
70BF80
72B410
2A2E90
ENDCHAR
STARTCHAR Scommaaccent
ENCODING 536
SWIDTH 474 0
DWIDTH 7 0
BBX 8 15 0 -4
BITMAP
01E8
0B09
0D0A
1D1D
1D3C
1E00
0B40
03C0
61C0
A180
6A00
0400
2C00
1800
2000
ENDCHAR
STARTCHAR scommaaccent
ENCODING 537
SWIDTH 423 0
DWIDTH 6 0
BBX 6 11 0 -4
BITMAP
0AD0
2CB0
2C50
0E00
0740
9340
7E00
1000
3800
3400
5000
ENDCHAR
STARTCHAR dotlessj
ENCODING 567
SWIDTH 277 0
DWIDTH 4 0
BBX 7 11 -3 -4
BITMAP
0074
0074
0070
00B0
00E0
01D0
02C0
0340
0A00
1D00
6400
ENDCHAR
STARTCHAR circumflex
ENCODING 710
SWIDTH 354 0
DWIDTH 5 0
BBX 5 3 0 8
BITMAP
0240
1F80
A180
ENDCHAR
STARTCHAR caron
ENCODING 711
SWIDTH 381 0
DWIDTH 5 0
BBX 6 3 0 8
BITMAP
6090
3B40
1400
ENDCHAR
STARTCHAR breve
ENCODING 728
SWIDTH 344 0
DWIDTH 5 0
BBX 5 2 0 9
BITMAP
7080
2A00
ENDCHAR
STARTCHAR dotaccent
ENCODING 729
SWIDTH 217 0
DWIDTH 3 0
BBX 2 2 1 9
BITMAP
B0
A0
ENDCHAR
STARTCHAR ring
ENCODING 730
SWIDTH 402 0
DWIDTH 6 0
BBX 4 4 2 7
BITMAP
6D
DA
C9
A8
ENDCHAR
STARTCHAR ogonek
ENCODING 731
SWIDTH 311 0
DWIDTH 4 0
BBX 4 4 0 -3
BITMAP
09
28
70
78
ENDCHAR
STARTCHAR tilde
ENCODING 732
SWIDTH 397 0
DWIDTH 6 0
BBX 5 2 1 9
BITMAP
6880
4A40
ENDCHAR
STARTCHAR hungarumlaut
ENCODING 733
SWIDTH 392 0
DWIDTH 5 0
BBX 6 4 0 8
BITMAP
0400
0CA0
29D0
6240
ENDCHAR
STARTCHAR pi
ENCODING 960
SWIDTH 640 0
DWIDTH 9 0
BBX 9 7 0 0
BITMAP
2BFF80
031D00
0A2C00
0D3800
2C3400
743500
E02D00
ENDCHAR
STARTCHAR uni1E02
ENCODING 7682
SWIDTH 551 0
DWIDTH 8 0
BBX 9 14 0 0
BITMAP
001400
003C00
001400
06E900
2D0700
074340
0B4740
1E0B00
2D6D00
3FF000
742800
702800
70B400
2F9000
ENDCHAR
STARTCHAR uni1E03
ENCODING 7683
SWIDTH 525 0
DWIDTH 7 0
BBX 8 12 0 0
BITMAP
0100
075E
070D
0A00
0D00
1DB4
2E28
3C28
7438
7074
71D0
2E40
ENDCHAR
STARTCHAR uni1E0A
ENCODING 7690
SWIDTH 630 0
DWIDTH 9 0
BBX 9 14 0 0
BITMAP
001400
002D00
001400
1BA900
190740
0382C0
0741C0
0E02C0
1D0380
2C0740
380E00
742C00
71A000
2A4000
ENDCHAR
STARTCHAR uni1E0B
ENCODING 7691
SWIDTH 557 0
DWIDTH 8 0
BBX 9 12 0 0
BITMAP
000040
0782C0
074380
000700
000A00
02AD00
0E2D00
2C2C00
343800
74B400
71F000
2A3900
ENDCHAR
STARTCHAR uni1E1E
ENCODING 7710
SWIDTH 518 0
DWIDTH 7 0
BBX 9 14 0 0
BITMAP
000400
002D00
000400
1E9080
34BF40
31D000
02C000
038000
0BE800
0B0000
0E0000
1D0000
380000
600000
ENDCHAR
STARTCHAR uni1E1F
ENCODING 7711
SWIDTH 393 0
DWIDTH 6 0
BBX 8 16 0 -2
BITMAP
0060
00F0
00B8
01C9
028D
035C
0740
0B00
2FA0
1D00
1C00
2800
3400
7000
E000
8000
ENDCHAR
STARTCHAR uni1E40
ENCODING 7744
SWIDTH 931 0
DWIDTH 13 0
BBX 15 14 -2 0
BITMAP
00000140
000002D0
00000140
0001B02C
0007E0BC
000DD2B8
0029C374
007289B0
00938CE0
01C764D0
034771C0
0B0792C0
1D0782C0
740741E4
ENDCHAR
STARTCHAR uni1E41
ENCODING 7745
SWIDTH 814 0
DWIDTH 11 0
BBX 11 11 0 0
BITMAP
000B00
000A00
000000
000000
1D6C78
0D9E68
1E2D74
2C38B0
7470E0
B0A0E4
90D0B4
ENDCHAR
STARTCHAR uni1E56
ENCODING 7766
SWIDTH 553 0
DWIDTH 8 0
BBX 10 14 -1 0
BITMAP
000140
000780
000100
01BA40
0740D0
0090E0
01D0E0
02C2C0
039B40
07F800
0B0000
1D0000
280000
700000
ENDCHAR
STARTCHAR uni1E57
ENCODING 7767
SWIDTH 550 0
DWIDTH 8 0
BBX 8 15 -1 -4
BITMAP
002C
0028
0000
0000
0B6E
0787
0B47
0E0B
0D0D
1D28
2AE0
3400
7000
A000
9000
ENDCHAR
STARTCHAR uni1E60
ENCODING 7776
SWIDTH 474 0
DWIDTH 7 0
BBX 8 14 0 0
BITMAP
0014
003C
0014
01E8
0B09
0D0A
1D1D
1D3C
1E00
0B40
03C0
61C0
A180
6A00
ENDCHAR
STARTCHAR uni1E61
ENCODING 7777
SWIDTH 423 0
DWIDTH 6 0
BBX 6 11 0 0
BITMAP
00E0
00E0
0000
0000
0AD0
2CB0
2C50
0E00
0740
9340
7E00
ENDCHAR
STARTCHAR uni1E6A
ENCODING 7786
SWIDTH 430 0
DWIDTH 6 0
BBX 9 14 0 0
BITMAP
001400
003C00
001400
2E9040
74FA00
61D000
02C000
038000
038000
074000
0B0000
0D0000
2C0000
740000
ENDCHAR
STARTCHAR uni1E6B
ENCODING 7787
SWIDTH 358 0
DWIDTH 5 0
BBX 5 11 1 0
BITMAP
0780
0740
0A00
1D00
7E40
3400
7000
A000
E000
E500
B800
ENDCHAR
STARTCHAR Wgrave
ENCODING 7808
SWIDTH 941 0
DWIDTH 13 0
BBX 13 14 1 0
BITMAP
00010000
00070000
00028000
79000380
070003C0
0F0782C0
1D1F0280
3C7D0380
74FC0740
B2A80B00
E7380D00
D9342800
E838A000
B01F4000
ENDCHAR
STARTCHAR wgrave
ENCODING 7809
SWIDTH 750 0
DWIDTH 11 0
BBX 11 11 0 0
BITMAP
002800
002800
001C00
000400
1D0470
0D2C74
1C7430
28F060
36A090
79B280
747D00
ENDCHAR
STARTCHAR Wacute
ENCODING 7810
SWIDTH 941 0
DWIDTH 13 0
BBX 13 14 1 0
BITMAP
00001000
00007000
00019000
79000380
070003C0
0F0782C0
1D1F0280
3C7D0380
78FC0740
B2A80B00
E7380D00
D9342800
E838A000
B01E4000
ENDCHAR
STARTCHAR wacute
ENCODING 7811
SWIDTH 750 0
DWIDTH 11 0
BBX 11 11 0 0
BITMAP
000200
000B00
001D00
001000
1D0470
0D2C74
1C7430
28F060
36A090
79B280
747D00
ENDCHAR
STARTCHAR Wdieresis
ENCODING 7812
SWIDTH 941 0
DWIDTH 13 0
BBX 13 14 1 0
BITMAP
00051400
001E7800
00041400
79000380
070003C0
0F0782C0
1D1F0280
3C7D0380
74FC0740
B2A80B00
E7380D00
D9342800
E838A000
B01F4000
ENDCHAR
STARTCHAR wdieresis
ENCODING 7813
SWIDTH 750 0
DWIDTH 11 0
BBX 11 11 0 0
BITMAP
00B2D0
00A2C0
000000
000000
1D0470
0D2C74
1C7430
28F060
36A090
79B280
747D00
ENDCHAR
STARTCHAR Ygrave
ENCODING 7922
SWIDTH 580 0
DWIDTH 8 0
BBX 10 18 0 -4
BITMAP
001000
003800
001D00
0740A0
0381D0
0742C0
0B0780
0E0B40
2C1F00
382D00
747C00
B0A800
A27400
797000
00D000
028000
0A0000
280000
ENDCHAR
STARTCHAR ygrave
ENCODING 7923
SWIDTH 549 0
DWIDTH 8 0
BBX 8 15 0 -4
BITMAP
00A0
00E0
0060
0010
1D0A
0E1D
1D2C
3878
74B4
B270
78A0
00D0
0280
0B00
2800
ENDCHAR
STARTCHAR endash
ENCODING 8211
SWIDTH 751 0
DWIDTH 11 0
BBX 9 1 1 4
BITMAP
6AAA40
ENDCHAR
STARTCHAR emdash
ENCODING 8212
SWIDTH 1066 0
DWIDTH 15 0
BBX 13 1 1 4
BITMAP
6AAAAA80
ENDCHAR
STARTCHAR quoteleft
ENCODING 8216
SWIDTH 268 0
DWIDTH 4 0
BBX 2 4 2 8
BITMAP
10
A0
D0
E0
ENDCHAR
STARTCHAR quoteright
ENCODING 8217
SWIDTH 268 0
DWIDTH 4 0
BBX 3 4 2 8
BITMAP
10
74
34
90
ENDCHAR
STARTCHAR quotesinglbase
ENCODING 8218
SWIDTH 268 0
DWIDTH 4 0
BBX 3 4 0 -2
BITMAP
10
74
34
90
ENDCHAR
STARTCHAR quotedblleft
ENCODING 8220
SWIDTH 485 0
DWIDTH 7 0
BBX 5 4 2 8
BITMAP
1440
6280
E340
A340
ENDCHAR
STARTCHAR quotedblright
ENCODING 8221
SWIDTH 480 0
DWIDTH 7 0
BBX 6 4 2 8
BITMAP
1440
39D0
35C0
9240
ENDCHAR
STARTCHAR quotedblbase
ENCODING 8222
SWIDTH 463 0
DWIDTH 6 0
BBX 5 4 0 -2
BITMAP
1040
75C0
35C0
9240
ENDCHAR
STARTCHAR dagger
ENCODING 8224
SWIDTH 488 0
DWIDTH 7 0
BBX 6 11 1 0
BITMAP
0380
0380
5BA0
2F90
0E00
0D00
1C00
2800
3400
6000
8000
ENDCHAR
STARTCHAR daggerdbl
ENCODING 8225
SWIDTH 488 0
DWIDTH 7 0
BBX 6 11 1 0
BITMAP
0380
0780
6BA0
1F50
0E00
1D00
BF80
2800
3000
6000
8000
ENDCHAR
STARTCHAR bullet
ENCODING 8226
SWIDTH 437 0
DWIDTH 6 0
BBX 4 4 1 2
BITMAP
2D
7F
7E
04
ENDCHAR
STARTCHAR ellipsis
ENCODING 8230
SWIDTH 810 0
DWIDTH 11 0
BBX 10 2 0 0
BITMAP
74B4F0
74B0F0
ENDCHAR
STARTCHAR perthousand
ENCODING 8240
SWIDTH 1184 0
DWIDTH 17 0
BBX 15 11 1 0
BITMAP
2E024000
73470000
E34D0000
D7280000
69700000
00D00000
028681A0
071CD724
0D38DA38
2835CD70
301E47D0
ENDCHAR
STARTCHAR guilsinglleft
ENCODING 8249
SWIDTH 413 0
DWIDTH 6 0
BBX 4 6 1 1
BITMAP
06
2D
E0
B0
2C
04
ENDCHAR
STARTCHAR guilsinglright
ENCODING 8250
SWIDTH 416 0
DWIDTH 6 0
BBX 4 6 1 1
BITMAP
70
2C
0A
2D
A0
40
ENDCHAR
STARTCHAR fraction
ENCODING 8260
SWIDTH 580 0
DWIDTH 8 0
BBX 8 12 0 0
BITMAP
0001
000A
001C
0034
00A0
00D0
0280
0700
0900
1C00
3400
6000
ENDCHAR
STARTCHAR Euro
ENCODING 8364
SWIDTH 622 0
DWIDTH 9 0
BBX 9 11 1 0
BITMAP
006A00
01D340
074740
0B0F00
1D0900
7E8000
380000
BE4000
340000
382400
1BE000
ENDCHAR
STARTCHAR trademark
ENCODING 8482
SWIDTH 1084 0
DWIDTH 15 0
BBX 12 6 2 5
BITMAP
6A5205
5E5B5E
0C1B69
28279D
28678D
28834D
ENDCHAR
STARTCHAR Omega
ENCODING 8486
SWIDTH 839 0
DWIDTH 12 0
BBX 10 11 1 0
BITMAP
01A400
1E5B40
7802C0
B001D0
E000E0
E000E0
B000E0
7401D0
280380
490A20
FF1FF0
ENDCHAR
STARTCHAR partialdiff
ENCODING 8706
SWIDTH 580 0
DWIDTH 8 0
BBX 8 12 0 0
BITMAP
0010
01E9
0287
0047
02EB
0E1F
2C0E
781D
B03C
B074
71E0
2F40
ENDCHAR
STARTCHAR Delta
ENCODING 8710
SWIDTH 663 0
DWIDTH 9 0
BBX 9 9 0 0
BITMAP
001000
00E000
02B400
032800
091D00
180A00
240700
600380
BAAB80
ENDCHAR
STARTCHAR product
ENCODING 8719
SWIDTH 667 0
DWIDTH 9 0
BBX 8 12 1 -1
BITMAP
6AA8
E01D
E01D
E01D
E01D
E01D
E01D
E01D
E01D
E01D
E01D
D01D
ENDCHAR
STARTCHAR summation
ENCODING 8721
SWIDTH 677 0
DWIDTH 9 0
BBX 9 13 0 -2
BITMAP
0AAA40
2D5500
1E0000
0B8000
03D000
01F000
00A000
01C000
074000
0D0000
380000
7FFF00
155400
ENDCHAR
STARTCHAR minus
ENCODING 8722
SWIDTH 617 0
DWIDTH 9 0
BBX 7 2 1 4
BITMAP
AAA4
5554
ENDCHAR
STARTCHAR radical
ENCODING 8730
SWIDTH 709 0
DWIDTH 10 0
BBX 11 14 0 0
BITMAP
000004
00000C
00002C
000034
0000B0
0001D0
000280
1D0700
7E0A00
0B1C00
072400
037000
03D000
028000
ENDCHAR
STARTCHAR infinity
ENCODING 8734
SWIDTH 681 0
DWIDTH 10 0
BBX 8 4 1 3
BITMAP
BDBE
C3D3
CB97
BD7D
ENDCHAR
STARTCHAR integral
ENCODING 8747
SWIDTH 583 0
DWIDTH 8 0
BBX 11 16 -1 -3
BITMAP
0001F4
000358
000A28
000D20
001C00
002800
003400
007000
00B000
00E000
01D000
02C000
A38000
D70000
DD0000
640000
ENDCHAR
STARTCHAR approxequal
ENCODING 8776
SWIDTH 671 0
DWIDTH 9 0
BBX 8 7 1 1
BITMAP
1E42
67D9
81F8
1900
AF49
82F4
0040
ENDCHAR
STARTCHAR notequal
ENCODING 8800
SWIDTH 617 0
DWIDTH 9 0
BBX 7 10 1 0
BITMAP
0014
0070
0090
BFFC
0340
5A54
AEA8
3400
A000
4000
ENDCHAR
STARTCHAR lessequal
ENCODING 8804
SWIDTH 704 0
DWIDTH 10 0
BBX 7 10 1 0
BITMAP
0004
0078
0690
2D00
F000
2D00
06D0
0078
0000
FFF8
ENDCHAR
STARTCHAR greaterequal
ENCODING 8805
SWIDTH 617 0
DWIDTH 9 0
BBX 7 10 1 0
BITMAP
4000
B400
1A40
01E0
0078
0690
2D00
D000
0000
FFF8
ENDCHAR
STARTCHAR lozenge
ENCODING 9674
SWIDTH 580 0
DWIDTH 8 0
BBX 8 11 0 0
BITMAP
0140
03C0
0AA0
1C34
2428
700D
340C
1824
0970
07D0
0280
ENDCHAR
STARTCHAR commaaccent
ENCODING 63171
SWIDTH 250 0
DWIDTH 4 0
BBX 3 4 0 -4
BITMAP
10
38
24
50
ENDCHAR
STARTCHAR ff
ENCODING 64256
SWIDTH 773 0
DWIDTH 11 0
BBX 13 14 0 -2
BITMAP
00680A40
01D92580
028D7280
035CA340
0700E000
0B00D000
2FABE800
6D038000
1C034000
28070000
340A0000
700D0000
E02C0000
80240000
ENDCHAR
STARTCHAR fi
ENCODING 64257
SWIDTH 623 0
DWIDTH 9 0
BBX 10 14 -1 -2
BITMAP
000A90
002870
007070
00E0B0
01C050
06EBD0
1F81C0
074280
0B0340
0E0700
0D0A00
1C0740
380000
700000
ENDCHAR
STARTCHAR fl
ENCODING 64258
SWIDTH 637 0
DWIDTH 9 0
BBX 11 14 -1 -2
BITMAP
000A90
002870
007074
00E070
01D0A0
02C0D0
0BE5C0
0B4280
070340
0A0740
0D0700
1C0780
380000
700000
ENDCHAR
STARTCHAR .notdef
ENCODING -1
SWIDTH 896 0
DWIDTH 13 0
BBX 13 13 1 0
BITMAP
00555500
03FFFF80
07FFFF40
0BEFAF40
0F4D2F00
1F49FE00
2F83FD00
3F87FC00
7F47F800
7D61B400
BAF9F000
FFFFE000
FFFFD000
ENDCHAR
ENDFONT
